<?xml version="1.0" encoding="UTF-8"?>
<svg width="13px" height="25px" viewBox="0 0 13 25" version="1.1" xmlns="http://www.w3.org/2000/svg" xmlns:xlink="http://www.w3.org/1999/xlink">
    <!-- Generator: Sketch 48.2 (47327) - http://www.bohemiancoding.com/sketch -->
    <title>icon_facebook</title>
    <desc>Created with Sketch.</desc>
    <defs></defs>
    <g id="OnePager-–-Start" stroke="none" stroke-width="1" fill="none" fill-rule="evenodd" transform="translate(-1217.000000, -6898.000000)">
        <g id="Footer" transform="translate(0.000000, 6880.000000)" fill="#FFFFFF">
            <path d="M1217.4151,31.3149904 L1220.23604,31.3149904 L1220.23604,42.5967568 C1220.23604,42.8195847 1220.42187,43 1220.65114,43 L1225.43422,43 C1225.6636,43 1225.84932,42.8195847 1225.84932,42.5967568 L1225.84932,31.3681677 L1229.09234,31.3681677 C1229.30322,31.3681677 1229.48062,31.2144487 1229.50467,31.0109971 L1229.99723,26.857571 C1230.01075,26.7432506 1229.97352,26.6288225 1229.89473,26.543136 C1229.81594,26.4573419 1229.70325,26.4081475 1229.5849,26.4081475 L1225.84954,26.4081475 L1225.84954,23.8046133 C1225.84954,23.0197639 1226.28448,22.6217954 1227.14261,22.6217954 L1229.5849,22.6217954 C1229.81428,22.6217954 1230,22.4412725 1230,22.2186598 L1230,18.4061496 C1230,18.1834294 1229.81428,18.0029065 1229.5849,18.0029065 L1226.21899,18.0029065 C1226.19528,18.00183 1226.14264,18 1226.06496,18 C1225.48087,18 1223.4508,18.1113063 1221.84724,19.544402 C1220.0706,21.1325083 1220.31748,23.0338655 1220.37655,23.3635863 L1220.37655,26.4081475 L1217.4151,26.4081475 C1217.18583,26.4081475 1217,26.5885628 1217,26.8113907 L1217,30.9116396 C1217,31.1344675 1217.18583,31.3149904 1217.4151,31.3149904" id="icon_facebook"></path>
        </g>
    </g>
</svg>