<?xml version="1.0" encoding="UTF-8"?>
<svg width="640px" height="605px" viewBox="0 0 640 605" version="1.1" xmlns="http://www.w3.org/2000/svg" xmlns:xlink="http://www.w3.org/1999/xlink">
    <!-- Generator: Sketch 48.2 (47327) - http://www.bohemiancoding.com/sketch -->
    <title>icon_drop</title>
    <desc>Created with Sketch.</desc>
    <defs>
        <polygon id="path-1" points="0.000823151125 640 0.000823151125 0.673954984 639.325839 0.673954984 639.325839 640"></polygon>
    </defs>
    <g id="OnePager-–-Start" stroke="none" stroke-width="1" fill="none" fill-rule="evenodd" transform="translate(0.000000, -209.000000)">
        <g id="Header">
            <g id="icon_drop">
                <g transform="translate(0.000000, 209.000000)" id="Group">
                    <g>
                        <path d="M320,128 L128,128 L128,320 C128,425.868102 214.131898,512 320,512 C425.868102,512 512,425.868102 512,320 C512,214.133953 425.868102,128 320,128" id="Fill-14" fill="#85BD3E"></path>
                        <g id="Group-18">
                            <mask id="mask-2" fill="white">
                                <use xlink:href="#path-1"></use>
                            </mask>
                            <g id="Clip-17"></g>
                            <path d="M319.663331,0.673954984 L0.000823151125,0.673954984 L0.000823151125,320.336463 C0.000823151125,496.883859 143.117994,640.001029 319.663331,640.001029 C496.210727,640.001029 639.325839,496.883859 639.325839,320.336463 C639.325839,143.793183 496.210727,0.673954984 319.663331,0.673954984 M319.663331,48.4537621 C469.57973,48.4537621 591.546032,170.420064 591.546032,320.336463 C591.546032,470.25492 469.57973,592.219164 319.663331,592.219164 C169.746932,592.219164 47.7806302,470.25492 47.7806302,320.336463 L47.7806302,48.4537621 L319.663331,48.4537621" id="Fill-16" fill="#85BD3E" mask="url(#mask-2)"></path>
                        </g>
                    </g>
                </g>
            </g>
        </g>
    </g>
</svg>