<?xml version="1.0" encoding="UTF-8"?>
<svg width="21px" height="25px" viewBox="0 0 21 25" version="1.1" xmlns="http://www.w3.org/2000/svg" xmlns:xlink="http://www.w3.org/1999/xlink">
    <!-- Generator: Sketch 48.2 (47327) - http://www.bohemiancoding.com/sketch -->
    <title>icon_youtube</title>
    <desc>Created with Sketch.</desc>
    <defs>
        <polygon id="path-1" points="0 0.0305471698 20.9167514 0.0305471698 20.9167514 13.8679057 0 13.8679057"></polygon>
        <polygon id="path-3" points="0.0503711009 0.0309433962 4.71564633 0.0309433962 4.71564633 9.24929245 0.0503711009 9.24929245"></polygon>
    </defs>
    <g id="OnePager-–-Start" stroke="none" stroke-width="1" fill="none" fill-rule="evenodd" transform="translate(-1170.000000, -6898.000000)">
        <g id="Footer" transform="translate(0.000000, 6880.000000)">
            <g id="icon_youtube" transform="translate(1170.000000, 18.000000)">
                <g id="Page-1">
                    <g id="Group-3" transform="translate(0.000000, 11.101132)">
                        <mask id="mask-2" fill="white">
                            <use xlink:href="#path-1"></use>
                        </mask>
                        <g id="Clip-2"></g>
                        <path d="M13.0978156,5.86889623 C13.0330817,5.71116038 12.8942697,5.63266981 12.7200083,5.61606604 C12.5160771,5.59653774 12.3527972,5.67729245 12.204545,5.8055 C12.1454945,5.8559717 12.1183294,5.93153774 12.1183294,5.93153774 L12.1214119,10.0047453 L12.1214119,10.104934 C12.1214119,10.104934 12.1567651,10.1518208 12.1623523,10.1580472 C12.2823798,10.2855 12.4228294,10.3865377 12.6022927,10.4230472 C12.8984119,10.4822925 13.107256,10.3618208 13.1648615,10.0931415 C13.1795037,10.025783 13.1881734,9.9564434 13.1881734,9.88795283 C13.1896183,8.67512264 13.1919303,7.46276415 13.1854761,6.25068868 C13.1848018,6.12248113 13.1463661,5.98870755 13.0978156,5.86889623 Z M17.8812881,6.1714434 C17.8812881,5.86814151 17.6298661,5.62125472 17.3201642,5.62125472 C17.0097881,5.62125472 16.7583661,5.86814151 16.7583661,6.1714434 L16.7583661,7.12182075 L17.8812881,7.12182075 L17.8812881,6.1714434 Z M19.0319532,10.4900283 C18.8136688,11.115783 18.3629394,11.4629528 17.7017284,11.5580472 C17.2915541,11.6170094 16.8856183,11.6085189 16.5009716,11.4378585 C15.9746229,11.2053113 15.6765771,10.785217 15.5486505,10.2501226 C15.4892147,10.001066 15.4598339,9.73974528 15.4568477,9.48399057 C15.4466367,8.47946226 15.4515495,7.47417925 15.4537651,6.4695566 C15.4545358,5.94446226 15.5824624,5.45983962 15.950155,5.05748113 C16.3692881,4.59785849 16.9055587,4.42653774 17.5181229,4.46521698 C17.7024991,4.47625472 17.8902468,4.50578302 18.0652789,4.56248113 C18.660889,4.75417925 18.9792606,5.19116038 19.1042009,5.77087736 C19.1519807,5.99417925 19.1697055,6.2259717 19.1734624,6.45446226 C19.1835771,6.99031132 19.1697055,8.17134906 19.1697055,8.17134906 L16.7583661,8.17134906 L16.7583661,9.86436792 C16.7583661,10.1683302 17.0097881,10.4145566 17.3201642,10.4145566 C17.6298661,10.4145566 17.8812881,10.1683302 17.8812881,9.86436792 L17.8812881,8.99427358 L19.1768339,8.99427358 C19.1768339,8.99427358 19.1960037,10.0213491 19.0319532,10.4900283 Z M14.3810312,10.7480472 C14.2128385,11.2433302 13.8429303,11.4954057 13.3111872,11.4898396 C12.8788569,11.4861604 12.5281183,11.3177642 12.2391275,11.010783 C12.2067606,10.9769151 12.117655,10.8839906 12.117655,10.8839906 L12.117655,11.3988019 L10.8581367,11.3988019 L10.8581367,2.2250283 L12.117655,2.2250283 L12.117655,5.24465094 C12.117655,5.24465094 12.1883615,5.10568868 12.2530954,5.03417925 C12.4483569,4.8205 12.6854257,4.65540566 12.9785587,4.58276415 C13.4617514,4.46446226 14.0186367,4.61078302 14.2839303,5.16389623 C14.440467,5.49078302 14.4841046,5.83946226 14.4841046,6.19427358 C14.4863202,7.47634906 14.4863202,8.75880189 14.4848752,10.0408774 C14.4841046,10.280783 14.4588661,10.5180472 14.3810312,10.7480472 Z M9.5991,8.13748113 L9.5991,11.4003113 L8.3422789,11.4003113 L8.3422789,10.6544623 C8.29671468,10.7020094 8.27118716,10.7277642 8.24748991,10.7542736 C7.97689817,11.0531415 7.6702789,11.3019151 7.27888899,11.4341792 C7.08776972,11.4983302 6.89096697,11.5200283 6.69002202,11.4861604 C6.41567339,11.4415377 6.23129725,11.2868208 6.12032477,11.0424811 C6.01715505,10.8169151 5.99085688,10.575217 5.99008624,10.3323868 C5.9871,9.43427358 5.98864128,4.68078302 5.98864128,4.63474528 L7.24237982,4.63474528 C7.24469174,4.67634906 7.24950826,8.08842453 7.2502789,9.75266981 C7.2502789,9.84333019 7.25104954,9.93616038 7.26944862,10.0242736 C7.31578349,10.2475755 7.49071927,10.3434245 7.71015963,10.264934 C7.96302661,10.1746509 8.15568716,10.0039906 8.31742569,9.79946226 C8.34150826,9.7700283 8.34150826,9.71729245 8.34150826,9.67493396 L8.34150826,4.62738679 L9.5991,4.62446226 L9.5991,8.13748113 Z M4.51921927,11.3995566 L3.09940734,11.3995566 L3.09940734,3.54059434 L1.62998532,3.54059434 L1.62998532,2.22578302 L5.99162752,2.22578302 L5.99162752,3.53766981 L4.51921927,3.53766981 L4.51921927,11.3995566 Z M17.8428523,0.10795283 C12.9205679,0.00474528302 7.99606789,0.00474528302 3.0734945,0.10795283 C1.36546239,0.143707547 -1.9266055e-05,1.51125472 -1.9266055e-05,3.18427358 L-1.9266055e-05,10.7134245 C-1.9266055e-05,12.3871981 1.36546239,13.7547453 3.0734945,13.7905 C7.99606789,13.8937075 12.9205679,13.8937075 17.8428523,13.7905 C19.5512697,13.7547453 20.9167514,12.3871981 20.9167514,10.7134245 L20.9167514,3.18427358 C20.9167514,1.51125472 19.5512697,0.143707547 17.8428523,0.10795283 Z M13.1854761,6.25068868 C13.1848018,6.12248113 13.1463661,5.98870755 13.0978156,5.86889623 C13.0330817,5.71116038 12.8942697,5.63266981 12.7200083,5.61606604 C12.5160771,5.59653774 12.3527972,5.67729245 12.204545,5.8055 C12.1454945,5.8559717 12.1183294,5.93153774 12.1183294,5.93153774 L12.1214119,10.0047453 L12.1214119,10.104934 C12.1214119,10.104934 12.1567651,10.1518208 12.1623523,10.1580472 C12.2823798,10.2855 12.4228294,10.3865377 12.6022927,10.4226698 C12.8984119,10.4822925 13.107256,10.3618208 13.1648615,10.0928585 C13.1795037,10.025783 13.1881734,9.9564434 13.1881734,9.88757547 C13.1896183,8.67474528 13.1919303,7.46276415 13.1854761,6.25068868 Z M13.1854761,6.25068868 C13.1848018,6.12248113 13.1463661,5.98870755 13.0978156,5.86889623 C13.0330817,5.71116038 12.8942697,5.63266981 12.7200083,5.61606604 C12.5160771,5.59653774 12.3527972,5.67729245 12.204545,5.8055 C12.1454945,5.8559717 12.1183294,5.93153774 12.1183294,5.93153774 L12.1214119,10.0047453 L12.1214119,10.104934 C12.1214119,10.104934 12.1567651,10.1518208 12.1623523,10.1580472 C12.2823798,10.2855 12.4228294,10.3865377 12.6022927,10.4226698 C12.8984119,10.4822925 13.107256,10.3618208 13.1648615,10.0928585 C13.1795037,10.025783 13.1881734,9.9564434 13.1881734,9.88757547 C13.1896183,8.67474528 13.1919303,7.46276415 13.1854761,6.25068868 Z" id="Fill-1" fill="#FFFFFF" mask="url(#mask-2)"></path>
                    </g>
                    <path d="M16.316605,2.50327358 L16.3162197,9.31421698 L15.0275133,9.31421698 L15.0289583,8.58233019 C14.8867748,8.71978302 14.765206,8.84836792 14.6312106,8.96374528 C14.3945271,9.16789623 14.1262472,9.3204434 13.8124032,9.38053774 C13.3303665,9.47261321 12.9199032,9.32374528 12.7663528,8.83478302 C12.7152014,8.67185849 12.6842794,8.49648113 12.6828344,8.32657547 L12.6828344,2.50327358 L13.9618115,2.50327358 L13.9618115,7.69714151 C13.9618115,7.76610377 13.967495,7.83572642 13.9799216,7.90317925 C14.0186463,8.11723585 14.1800959,8.21789623 14.3907702,8.14638679 C14.6470087,8.05978302 14.8430408,7.8854434 15.0090179,7.68053774 C15.0327151,7.65148113 15.0281876,7.59657547 15.0281876,7.55383962 L15.0281876,2.50327358 L16.316605,2.50327358 Z" id="Fill-4" fill="#FFFFFF"></path>
                    <g id="Group-8" transform="translate(3.275229, 0.063396)">
                        <mask id="mask-4" fill="white">
                            <use xlink:href="#path-3"></use>
                        </mask>
                        <g id="Clip-7"></g>
                        <path d="M2.38262339,3.62353774 C2.10307294,2.46863208 1.51680688,0.0308962264 1.51680688,0.0308962264 L0.0503711009,0.0308962264 C0.0503711009,0.0308962264 1.17695367,3.69023585 1.68085734,5.3220283 C1.69925642,5.38136792 1.70754083,5.44514151 1.70754083,5.5070283 L1.70677018,9.24929245 L3.05915092,9.24929245 L3.05847661,5.5070283 C3.05847661,5.44514151 3.06705,5.38136792 3.08516009,5.3220283 C3.58896743,3.69023585 4.71564633,0.0308962264 4.71564633,0.0308962264 L3.24921055,0.0308962264 C3.24921055,0.0308962264 2.6629445,2.46863208 2.38339404,3.62353774 L2.38262339,3.62353774 Z" id="Fill-6" fill="#FFFFFF" mask="url(#mask-4)"></path>
                    </g>
                    <path d="M10.2884876,7.74796226 C10.2884876,8.03541509 10.0495885,8.26909434 9.75607018,8.26909434 C9.46255183,8.26909434 9.22365275,8.03541509 9.22365275,7.74796226 L9.22365275,4.06833962 C9.22365275,3.78088679 9.46255183,3.54692453 9.75607018,3.54692453 C10.0495885,3.54692453 10.2884876,3.78088679 10.2884876,4.06833962 L10.2884876,7.74796226 Z M9.75568486,2.33267925 C8.73670321,2.33267925 7.91076743,3.14192453 7.91076743,4.13984906 L7.91076743,7.67645283 C7.91076743,8.67437736 8.73670321,9.48333962 9.75568486,9.48333962 C10.7750518,9.48333962 11.6009876,8.67437736 11.6009876,7.67645283 L11.6009876,4.13984906 C11.6009876,3.14192453 10.7750518,2.33267925 9.75568486,2.33267925 Z" id="Fill-9" fill="#FFFFFF"></path>
                </g>
            </g>
        </g>
    </g>
</svg>