<?xml version="1.0" encoding="UTF-8"?>
<svg width="130px" height="141px" viewBox="0 0 130 141" version="1.1" xmlns="http://www.w3.org/2000/svg" xmlns:xlink="http://www.w3.org/1999/xlink">
    <!-- Generator: Sketch 48.2 (47327) - http://www.bohemiancoding.com/sketch -->
    <title>icon_Crypto Likes</title>
    <desc>Created with Sketch.</desc>
    <defs>
        <polygon id="path-1" points="0.4682 0.093715139 96.499 0.093715139 96.499 101.790261 0.4682 101.790261"></polygon>
    </defs>
    <g id="OnePager-–-Start" stroke="none" stroke-width="1" fill="none" fill-rule="evenodd" transform="translate(-281.000000, -1970.000000)">
        <g id="Rethinking" transform="translate(171.000000, 1810.000000)">
            <g id="icon_Crypto-Likes" transform="translate(110.000000, 160.000000)">
                <g id="Page-1">
                    <g id="Group-3" transform="translate(33.000000, 36.220000)">
                        <mask id="mask-2" fill="white">
                            <use xlink:href="#path-1"></use>
                        </mask>
                        <g id="Clip-2"></g>
                        <path d="M17.8072,49.8039 C19.5412,46.2509 23.9392,39.1459 33.2442,33.7329 C46.2272,26.2049 50.9642,9.6269 51.5982,5.0169 C52.2322,0.3649 63.3552,-5.0911 64.7082,9.9229 C66.0622,24.9359 56.9272,35.0859 56.9272,35.0859 L88.4342,35.0859 C98.0772,33.7329 99.5992,49.5079 90.1262,49.6769 L87.1232,49.7199 L87.0382,50.5229 L88.8572,50.5229 C96.5122,50.5229 96.5122,65.5359 88.8572,65.5359 L88.4762,65.5359 C94.2282,67.4399 93.8472,80.2539 86.7422,80.2539 L84.7122,80.2539 L84.7122,80.2969 C89.5762,81.3529 89.0692,85.8789 89.0692,89.6419 C89.0692,95.9859 72.5752,99.3279 68.4302,100.4699 C56.4612,103.7249 40.6862,100.0889 27.2802,98.8619 L18.8642,97.8889 L0.4682,97.8889 L0.4682,49.8039 L17.8492,49.8039 L17.8072,49.8039 Z" id="Fill-1" fill="#F7CBA4" mask="url(#mask-2)"></path>
                    </g>
                    <path d="M30.8306,133.913 C30.8306,135.037 31.7426,135.949 32.8666,135.949 L50.0676,135.949 C51.1916,135.949 52.1036,135.037 52.1036,133.913 L52.1036,83.047 C52.1036,81.923 51.1916,81.012 50.0676,81.012 L32.8666,81.012 C31.7426,81.012 30.8306,81.923 30.8306,83.047 L30.8306,133.913 Z" id="Fill-4" fill="#0090A4"></path>
                    <path d="M0.0001,138.1845 C0.0001,139.3085 0.9111,140.2195 2.0361,140.2195 L35.8581,140.2195 C36.9821,140.2195 37.8941,139.3085 37.8941,138.1845 L37.8941,78.7335 C37.8941,77.6095 36.9821,76.6975 35.8581,76.6975 L2.0361,76.6975 C0.9111,76.6975 0.0001,77.6095 0.0001,78.7335 L0.0001,138.1845 Z" id="Fill-6" fill="#006775"></path>
                    <path d="M127.4991,13.5541 C127.4991,21.0451 121.4341,27.1181 113.9451,27.1181 C106.4561,27.1181 100.3801,21.0451 100.3801,13.5541 C100.3801,6.0741 106.4561,0.0001 113.9451,0.0001 C121.4341,0.0001 127.4991,6.0741 127.4991,13.5541" id="Fill-8" fill="#FCC62B"></path>
                    <path d="M120.0343,16.2216 C120.0343,16.2216 120.0363,16.2186 120.0383,16.2116 C120.0373,16.2146 120.0353,16.2186 120.0343,16.2216 C120.0433,16.1746 120.0523,16.1316 120.0603,16.0866 C120.0523,16.1536 120.0433,16.1946 120.0383,16.2116 C120.3933,15.3986 120.5923,14.5016 120.5923,13.5586 C120.5923,9.9366 117.6813,6.9836 114.0763,6.9106 C114.0313,6.9096 113.9853,6.9066 113.9393,6.9066 L107.2873,6.9066 L107.2873,13.5586 C107.2873,17.2276 110.2713,20.2116 113.9393,20.2116 C116.6613,20.2116 119.0053,18.5676 120.0343,16.2216" id="Fill-10" fill="#E4AF18"></path>
                </g>
            </g>
        </g>
    </g>
</svg>