<?xml version="1.0" encoding="UTF-8"?>
<svg width="125px" height="125px" viewBox="0 0 125 125" version="1.1" xmlns="http://www.w3.org/2000/svg" xmlns:xlink="http://www.w3.org/1999/xlink">
    <!-- Generator: Sketch 49 (51002) - http://www.bohemiancoding.com/sketch -->
    <title>icon_DROPcoins</title>
    <desc>Created with Sketch.</desc>
    <defs></defs>
    <g id="OnePage" stroke="none" stroke-width="1" fill="none" fill-rule="evenodd">
        <g id="OnePager-–-Start" transform="translate(-1044.000000, -1985.000000)">
            <g id="Rethinking" transform="translate(171.000000, 1810.000000)">
                <g id="icon_DROPcoins" transform="translate(873.000000, 175.000000)">
                    <g id="Page-1">
                        <path d="M89.2226148,108.785826 C89.2226148,117.741096 70.9301217,125 48.3657244,125 C25.8005759,125 7.50883392,117.741096 7.50883392,108.785826 L7.50883392,94.6302817 L89.2226148,94.6302817 L89.2226148,108.785826 Z" id="Fill-1" fill="#F6C358"></path>
                        <path d="M48.3660999,78.7852113 C70.9308053,78.7852113 89.2226148,85.9778086 89.2226148,94.8496028 C89.2226148,103.722146 70.9308053,110.915493 48.3660999,110.915493 C25.8013946,110.915493 7.50883392,103.722146 7.50883392,94.8496028 C7.50883392,85.9778086 25.8013946,78.7852113 48.3660999,78.7852113" id="Fill-3" fill="#FCD462"></path>
                        <path d="M48.3649755,82.2351291 C30.499465,82.2351291 15.9633781,87.9927997 15.9633781,95.0704225 C15.9633781,102.147293 30.499465,107.904963 48.3649755,107.904963 C66.2319838,107.904963 80.7680707,102.147293 80.7680707,95.0704225 C80.7680707,87.9927997 66.2319838,82.2351291 48.3649755,82.2351291 M48.3649755,109.15493 C28.7598673,109.15493 12.8091873,102.836618 12.8091873,95.0704225 C12.8091873,87.3034746 28.7598673,80.9859155 48.3649755,80.9859155 C67.9715814,80.9859155 83.9222615,87.3034746 83.9222615,95.0704225 C83.9222615,102.836618 67.9715814,109.15493 48.3649755,109.15493" id="Fill-5" fill="#F6C358"></path>
                        <path d="M55.1281121,99.1467207 C56.1264735,98.8299787 56.6275407,98.4296109 56.6275407,97.9463573 C56.6275407,97.4638437 56.2351386,97.0804971 55.4510892,96.7970574 C54.6617573,96.5136177 53.1970412,96.2486793 51.0561861,96.000022 L51.0561861,99.726921 C52.7699266,99.6580962 54.125223,99.4649428 55.1281121,99.1467207 Z M43.8510807,90.0670297 C42.9395005,90.3771112 42.4867289,90.7641581 42.4867289,91.2266903 C42.4867289,91.6892224 42.8436639,92.0548078 43.5582884,92.3234465 C44.2691398,92.5935653 45.6297185,92.8518432 47.6302143,93.1005005 L47.6302143,89.5179115 C46.0221205,89.5734154 44.7619062,89.7569481 43.8510807,90.0670297 Z M47.6302143,103.433099 L47.6302143,101.921914 C42.7349987,101.72876 38.3400957,100.976868 34.4522968,99.6647567 L38.3627342,97.8642116 C41.3615915,98.8714216 44.4479846,99.4708632 47.6302143,99.6647567 L47.6302143,95.6477575 C43.5937555,95.2755117 40.6379115,94.7848576 38.7634371,94.1772753 C36.8889627,93.5704332 35.9517254,92.6690505 35.9517254,91.4753476 C35.9517254,90.2816446 37.0285672,89.3047767 39.1905516,88.5447439 C41.3532907,87.7854511 44.1650023,87.3717624 47.6302143,87.3029376 L47.6302143,86.2676056 L51.0561861,86.2676056 L51.0561861,87.322919 C54.9847344,87.4346667 58.6982162,87.9512226 62.1988953,88.877027 L58.7155724,90.7819194 C56.357387,90.1328943 53.8075282,89.7325264 51.0561861,89.5800758 L51.0561861,93.4727464 L51.2176747,93.4727464 C55.3243131,93.8464723 58.3412812,94.3504474 60.2678244,94.9846714 C62.1988953,95.6196356 63.1625442,96.5417397 63.1625442,97.7487635 C63.1625442,98.9572675 62.0555176,99.9415359 59.8407098,100.700089 C57.6266567,101.460121 54.7009975,101.87381 51.0561861,101.942635 L51.0561861,103.433099 L47.6302143,103.433099 Z" id="Fill-7" fill="#F6C358"></path>
                        <path d="M96.2897527,89.8593654 C96.2897527,98.8148587 77.9972595,106.073944 55.4328622,106.073944 C32.8684649,106.073944 14.5759717,98.8148587 14.5759717,89.8593654 L14.5759717,75.7042254 L96.2897527,75.7042254 L96.2897527,89.8593654 Z" id="Fill-9" fill="#F6C358"></path>
                        <path d="M55.4328622,59.4190141 C77.997775,59.4190141 96.2897527,66.6123607 96.2897527,75.4841549 C96.2897527,84.3566984 77.997775,91.5492958 55.4328622,91.5492958 C32.8679494,91.5492958 14.5759717,84.3566984 14.5759717,75.4841549 C14.5759717,66.6123607 32.8679494,59.4190141 55.4328622,59.4190141" id="Fill-11" fill="#FCD462"></path>
                        <path d="M54.9904172,62.8689319 C37.1249067,62.8689319 22.5880709,68.6266025 22.5880709,75.7049779 C22.5880709,82.7818482 37.1249067,88.5395188 54.9904172,88.5395188 C72.8574255,88.5395188 87.3935124,82.7818482 87.3935124,75.7049779 C87.3935124,68.6266025 72.8574255,62.8689319 54.9904172,62.8689319 M54.9904172,89.7887324 C35.3845602,89.7887324 19.434629,83.4711733 19.434629,75.7049779 C19.434629,67.93803 35.3845602,61.6197183 54.9904172,61.6197183 C74.5970231,61.6197183 90.5477032,67.93803 90.5477032,75.7049779 C90.5477032,83.4711733 74.5970231,89.7887324 54.9904172,89.7887324" id="Fill-13" fill="#F6C358"></path>
                        <path d="M61.3124011,80.2208492 C62.3107887,79.9041208 62.8118692,79.5037702 62.8118692,79.0205375 C62.8118692,78.5380447 62.4194568,78.1539746 61.6353867,77.8705471 C60.8460341,77.5878597 59.3812795,77.3221927 57.2403681,77.0742861 L57.2403681,80.8002844 C58.9541537,80.7322026 60.3094857,80.5390575 61.3124011,80.2208492 Z M50.0343187,71.1415496 C49.1234692,71.4516178 48.669931,71.838648 48.669931,72.3011602 C48.669931,72.7636724 49.02763,73.129242 49.7422733,73.3978691 C50.4531434,73.6679762 51.8130032,73.9262431 53.8143063,74.1748896 L53.8143063,70.5917151 C52.2054156,70.6472165 50.9459228,70.8307414 50.0343187,71.1415496 Z M53.8143063,84.5070423 L53.8143063,82.9951824 C48.918962,82.8020373 44.5239434,82.0501774 40.6360424,80.7388628 L44.545828,78.9376553 C47.5455187,79.9455619 50.6319929,80.5449777 53.8143063,80.7388628 L53.8143063,76.7212968 C49.7769867,76.349807 46.8218197,75.858434 44.947296,75.251618 C43.0727723,74.644062 42.1355104,73.7434582 42.1355104,72.5498067 C42.1355104,71.3561552 43.2123805,70.3785894 45.3744218,69.6193294 C47.536463,68.8593293 50.3482486,68.4463985 53.8143063,68.3768366 L53.8143063,67.3415493 L57.2403681,67.3415493 L57.2403681,68.3968171 C61.1690197,68.5085601 64.882599,69.0258337 68.3833702,69.9508581 L64.8999557,71.8556684 C62.5417083,71.2074113 59.9917826,70.8070607 57.2403681,70.6546167 L57.2403681,74.5471194 L57.4018609,74.5471194 C61.5086073,74.9208293 64.5249001,75.4247826 66.4522485,76.0589793 C68.3833702,76.6939161 69.3462898,77.6152404 69.3462898,78.8229523 C69.3462898,80.0314042 68.2392341,81.0148901 66.0251228,81.7741501 C63.8102568,82.5334102 60.8852753,82.9478211 57.2403681,83.0159029 L57.2403681,84.5070423 L53.8143063,84.5070423 Z" id="Fill-15" fill="#F6C358"></path>
                        <path d="M81.7137809,68.7326048 C81.7137809,77.6880981 63.4212877,84.9471831 40.8568905,84.9471831 C18.291742,84.9471831 0,77.6880981 0,68.7326048 L0,54.5774648 L81.7137809,54.5774648 L81.7137809,68.7326048 Z" id="Fill-17" fill="#F6C358"></path>
                        <path d="M40.8568905,38.7323944 C63.4218032,38.7323944 81.7137809,45.9249917 81.7137809,54.7967859 C81.7137809,63.6693294 63.4218032,70.8626761 40.8568905,70.8626761 C18.2919777,70.8626761 0,63.6693294 0,54.7967859 C0,45.9249917 18.2919777,38.7323944 40.8568905,38.7323944" id="Fill-19" fill="#FCD462"></path>
                        <path d="M40.4148199,41.7421713 C22.5487487,41.7421713 8.01281485,47.499842 8.01281485,54.5774648 C8.01281485,61.6550876 22.5487487,67.4127582 40.4148199,67.4127582 C58.28164,67.4127582 72.8175738,61.6550876 72.8175738,54.5774648 C72.8175738,47.499842 58.28164,41.7421713 40.4148199,41.7421713 M40.4148199,68.6619718 C20.8091693,68.6619718 4.85865724,62.3436602 4.85865724,54.5774648 C4.85865724,46.8112694 20.8091693,40.4929577 40.4148199,40.4929577 C60.0212193,40.4929577 75.9717314,46.8112694 75.9717314,54.5774648 C75.9717314,62.3436602 60.0212193,68.6619718 40.4148199,68.6619718" id="Fill-21" fill="#F6C358"></path>
                        <path d="M47.1781255,59.0940886 C48.1765131,58.7773602 48.6775935,58.3770097 48.6775935,57.8937769 C48.6775935,57.4112842 48.2851812,57.027214 47.5003564,56.7437866 C46.7117585,56.4610991 45.2470039,56.1954321 43.1060925,55.9467855 L43.1060925,59.6735239 C44.8198781,59.6054421 46.17521,59.411557 47.1781255,59.0940886 Z M35.900043,50.014049 C34.9891936,50.3241172 34.5356554,50.7118874 34.5356554,51.1743996 C34.5356554,51.6369118 34.8933544,52.0024815 35.6079977,52.2711085 C36.3188678,52.5412157 37.6787276,52.7994825 39.6800307,53.048129 L39.6800307,49.4649545 C38.07114,49.520456 36.8116472,49.7039808 35.900043,50.014049 Z M39.6800307,63.3802817 L39.6800307,61.8684218 C34.7839317,61.6752767 30.3896678,60.9234169 26.5017668,59.6121023 L30.4115523,57.8108947 C33.4112431,58.8188013 36.4977173,59.4182171 39.6800307,59.6121023 L39.6800307,55.5945362 C35.6427111,55.2230464 32.6875441,54.7316735 30.8122657,54.1248575 C28.9384967,53.5173014 28.0004802,52.6166977 28.0004802,51.4230462 C28.0004802,50.2293947 29.0781049,49.2518289 31.2401462,48.4925688 C33.4021874,47.7325688 36.2139729,47.3196379 39.6800307,47.2500761 L39.6800307,46.2147887 L43.1060925,46.2147887 L43.1060925,47.2700566 C47.0339894,47.3817995 50.7483234,47.8990732 54.2490945,48.8240976 L50.7656801,50.7289078 C48.4074327,50.0799107 45.8575069,49.6803002 43.1060925,49.5278562 L43.1060925,53.4203589 L43.2675853,53.4203589 C47.3743317,53.7933287 50.3906245,54.298022 52.3179729,54.9314787 C54.2490945,55.5671555 55.2120141,56.4884798 55.2120141,57.6961917 C55.2120141,58.9046436 54.1049585,59.8881295 51.8908471,60.6473896 C49.6759812,61.4066496 46.7509997,61.8210605 43.1060925,61.8891423 L43.1060925,63.3802817 L39.6800307,63.3802817 Z" id="Fill-23" fill="#F6C358"></path>
                        <path d="M99.3816254,51.126971 C99.3816254,60.0824643 81.0891323,67.3415493 58.524735,67.3415493 C35.9595865,67.3415493 17.6678445,60.0824643 17.6678445,51.126971 L17.6678445,36.971831 L99.3816254,36.971831 L99.3816254,51.126971 Z" id="Fill-25" fill="#F6C358"></path>
                        <path d="M58.5243594,20.6866197 C81.0890648,20.6866197 99.3816254,27.8799664 99.3816254,36.7517606 C99.3816254,45.6243041 81.0890648,52.8169014 58.5243594,52.8169014 C35.9596541,52.8169014 17.6678445,45.6243041 17.6678445,36.7517606 C17.6678445,27.8799664 35.9596541,20.6866197 58.5243594,20.6866197" id="Fill-27" fill="#FCD462"></path>
                        <path d="M58.5243606,24.1365375 C40.6582893,24.1365375 26.1223555,29.8942082 26.1223555,36.9725835 C26.1223555,44.0494538 40.6582893,49.8071244 58.5243606,49.8071244 C76.3911807,49.8071244 90.9271145,44.0494538 90.9271145,36.9725835 C90.9271145,29.8942082 76.3911807,24.1365375 58.5243606,24.1365375 M58.5243606,51.056338 C38.91871,51.056338 22.9681979,44.7387789 22.9681979,36.9725835 C22.9681979,29.2056356 38.91871,22.8873239 58.5243606,22.8873239 C78.13076,22.8873239 94.0812721,29.2056356 94.0812721,36.9725835 C94.0812721,44.7387789 78.13076,51.056338 58.5243606,51.056338" id="Fill-29" fill="#F6C358"></path>
                        <path d="M64.84597,41.4884548 C65.8443576,41.1717264 66.3454381,40.7713759 66.3454381,40.2881431 C66.3454381,39.8056504 65.9530257,39.4215802 65.1682009,39.1381528 C64.379603,38.8554653 62.9148484,38.5897983 60.773937,38.3418918 L60.773937,42.0678901 C62.4877226,41.9998083 63.8430546,41.8066632 64.84597,41.4884548 Z M53.5678876,32.4091552 C52.6570381,32.7192234 52.2034999,33.1062536 52.2034999,33.5687658 C52.2034999,34.031278 52.5611989,34.3968477 53.2758422,34.6654747 C53.9867123,34.9355819 55.3465721,35.1938487 57.3478752,35.4424952 L57.3478752,31.8593207 C55.7389845,31.9148222 54.4794917,32.098347 53.5678876,32.4091552 Z M57.3478752,45.7746479 L57.3478752,44.262788 C52.4525309,44.0696429 48.0575123,43.3177831 44.1696113,42.0064685 L48.0793969,40.2052609 C51.0790876,41.2131675 54.1655618,41.8125833 57.3478752,42.0064685 L57.3478752,37.9889024 C53.3105556,37.6174126 50.3553886,37.1260397 48.4808649,36.5192237 C46.6063412,35.9116676 45.6690793,35.0110639 45.6690793,33.8174124 C45.6690793,32.6237609 46.7459494,31.6461951 48.9079907,30.886935 C51.0700319,30.126935 53.8818175,29.7140041 57.3478752,29.6444422 L57.3478752,28.6091549 L60.773937,28.6091549 L60.773937,29.6644228 C64.7025886,29.7761657 68.4161679,30.2934394 71.9169391,31.2184638 L68.4335246,33.123274 C66.0752772,32.4750169 63.5253515,32.0746664 60.773937,31.9222224 L60.773937,35.8147251 L60.9354298,35.8147251 C65.0421762,36.1884349 68.058469,36.6923882 69.9858174,37.326585 C71.9169391,37.9615217 72.8798587,38.882846 72.8798587,40.0905579 C72.8798587,41.2990098 71.772803,42.2824957 69.5586917,43.0417558 C67.3438257,43.8010158 64.4188442,44.2154267 60.773937,44.2835085 L60.773937,45.7746479 L57.3478752,45.7746479 Z" id="Fill-31" fill="#F6C358"></path>
                        <path d="M84.8056537,30.4403513 C84.8056537,39.3958446 66.5131605,46.6549296 43.9487633,46.6549296 C21.3836148,46.6549296 3.09187279,39.3958446 3.09187279,30.4403513 L3.09187279,16.2852113 L84.8056537,16.2852113 L84.8056537,30.4403513 Z" id="Fill-33" fill="#F6C358"></path>
                        <path d="M43.9483877,0 C66.5130931,0 84.8056537,7.19259734 84.8056537,16.0651408 C84.8056537,24.9376844 66.5130931,32.1302817 43.9483877,32.1302817 C21.3836823,32.1302817 3.09187279,24.9376844 3.09187279,16.0651408 C3.09187279,7.19259734 21.3836823,0 43.9483877,0" id="Fill-35" fill="#FCD462"></path>
                        <path d="M44.3897105,3.44991782 C26.5242,3.44991782 11.9881131,9.20758845 11.9881131,16.2852113 C11.9881131,23.3628341 26.5242,29.1205047 44.3897105,29.1205047 C62.2567188,29.1205047 76.7928056,23.3628341 76.7928056,16.2852113 C76.7928056,9.20758845 62.2567188,3.44991782 44.3897105,3.44991782 M44.3897105,30.3697183 C24.7846023,30.3697183 8.83392226,24.0514066 8.83392226,16.2852113 C8.83392226,8.51901589 24.7846023,2.20070423 44.3897105,2.20070423 C63.9963164,2.20070423 79.9469965,8.51901589 79.9469965,16.2852113 C79.9469965,24.0514066 63.9963164,30.3697183 44.3897105,30.3697183" id="Fill-37" fill="#F6C358"></path>
                        <path d="M81.7137809,38.2922535 C105.620215,38.2922535 125,57.6043799 125,81.4256828 C125,105.247733 105.620215,124.559859 81.7137809,124.559859 C57.807347,124.559859 38.4275618,105.247733 38.4275618,81.4256828 C38.4275618,57.6043799 57.807347,38.2922535 81.7137809,38.2922535" id="Fill-39" fill="#FCD462"></path>
                        <path d="M81.9338796,47.3527993 C62.9588223,47.3527993 47.5200904,62.7365753 47.5200904,81.6465001 C47.5200904,100.555678 62.9588223,115.940201 81.9338796,115.940201 C100.910436,115.940201 116.349168,100.555678 116.349168,81.6465001 C116.349168,62.7365753 100.910436,47.3527993 81.9338796,47.3527993 M81.9338796,119.278169 C61.1108506,119.278169 44.1696113,102.397161 44.1696113,81.6465001 C44.1696113,60.895839 61.1108506,44.0140845 81.9338796,44.0140845 C102.757658,44.0140845 119.699647,60.895839 119.699647,81.6465001 C119.699647,102.397161 102.757658,119.278169 81.9338796,119.278169" id="Fill-41" fill="#F6C358"></path>
                        <path d="M82.8180212,62.0598592 L61.3957597,62.0598592 L61.3957597,83.4070647 C61.3957597,95.1778067 71.0058937,104.753521 82.8180212,104.753521 C94.6301487,104.753521 104.240283,95.1778067 104.240283,83.4070647 C104.240283,71.6363227 94.6301487,62.0598592 82.8180212,62.0598592" id="Fill-43" fill="#F6C358"></path>
                        <path d="M50.8561772,8.07204168 L35.4359993,5.72183099 L30.7369289,14.7388416 C28.1462434,19.7103825 32.9550633,24.8106291 41.4580364,26.1060628 C49.9602629,27.4022581 58.9865993,24.4108039 61.5772847,19.4392629 C64.1687168,14.4669604 59.3591503,9.36823695 50.8561772,8.07204168" id="Fill-45" fill="#F6C358"></path>
                    </g>
                </g>
            </g>
        </g>
    </g>
</svg>