<?xml version="1.0" encoding="UTF-8"?>
<svg width="26px" height="25px" viewBox="0 0 26 25" version="1.1" xmlns="http://www.w3.org/2000/svg" xmlns:xlink="http://www.w3.org/1999/xlink">
    <!-- Generator: Sketch 48.2 (47327) - http://www.bohemiancoding.com/sketch -->
    <title>icon_github</title>
    <desc>Created with Sketch.</desc>
    <defs></defs>
    <g id="OnePager-–-Start" stroke="none" stroke-width="1" fill="none" fill-rule="evenodd" transform="translate(-1118.000000, -6898.000000)">
        <g id="Footer" transform="translate(0.000000, 6880.000000)" fill="#FFFFFF">
            <path d="M1134.47831,37.3423091 C1134.44568,36.9655612 1134.40346,36.0076095 1133.45788,35.3963012 C1137.21205,35.0937849 1138.99889,33.0983545 1139.12738,30.4619035 C1139.23457,28.960109 1138.614,27.6396282 1137.51158,26.5742023 C1137.56726,25.4343486 1137.47568,24.083469 1137.3995,23.4901057 C1136.55274,23.2553492 1134.57826,24.2577223 1134.02653,24.6868344 C1132.86301,24.2522309 1130.01505,24.1001392 1128.28462,24.6868344 C1127.05787,23.8571457 1125.66112,23.3445841 1124.89992,23.4875561 C1124.19696,24.985134 1124.64884,26.4010277 1124.78601,26.5694954 C1123.88092,27.364863 1122.61807,28.3440938 1122.96103,30.3948303 C1123.51092,33.4016553 1125.7113,35.0237698 1129.25376,35.4205221 C1128.49817,35.5688874 1128.37089,36.1111612 1128.30736,36.3462119 C1125.92821,37.2898468 1125.2484,35.7633411 1124.94765,35.3657063 C1123.94884,34.1774108 1123.05292,34.5221911 1122.99765,34.5406264 C1122.944,34.559454 1122.90341,34.6344702 1122.90913,34.6704583 C1122.9592,34.926592 1123.50307,35.1868442 1123.52969,35.2077311 C1124.26672,35.7361784 1124.53982,36.6898155 1124.7081,36.9618349 C1125.76494,38.6328816 1128.2219,37.9397909 1128.24535,37.9541077 C1128.24719,38.0998255 1128.22842,39.3296986 1128.21405,40.2867677 C1123.73376,39.1101414 1120.43748,35.1804703 1120.43748,30.499951 C1120.43748,24.8904077 1125.1661,20.3436427 1130.9999,20.3436427 C1136.8338,20.3436427 1141.56252,24.8904077 1141.56252,30.499951 C1141.56252,34.8775618 1138.67815,38.5951284 1134.64138,40.0227892 C1134.56694,39.0443429 1134.48321,37.8329051 1134.47831,37.3423091 Z M1118,30.499951 C1118,37.403891 1123.82085,43 1130.9999,43 C1138.17905,43 1144,37.403891 1144,30.499951 C1144,23.5969915 1138.17905,18 1130.9999,18 C1123.82085,18 1118,23.5969915 1118,30.499951 Z" id="icon_github"></path>
        </g>
    </g>
</svg>