<?xml version="1.0" encoding="UTF-8"?>
<svg width="24px" height="25px" viewBox="0 0 24 25" version="1.1" xmlns="http://www.w3.org/2000/svg" xmlns:xlink="http://www.w3.org/1999/xlink">
    <!-- Generator: Sketch 48.2 (47327) - http://www.bohemiancoding.com/sketch -->
    <title>icon_mailchimp</title>
    <desc>Created with Sketch.</desc>
    <defs>
        <polygon id="path-1" points="6.96598597e-08 0.000704225352 23.9981919 0.000704225352 23.9981919 25 6.96598597e-08 25"></polygon>
    </defs>
    <g id="OnePager-–-Start" stroke="none" stroke-width="1" fill="none" fill-rule="evenodd" transform="translate(-1067.000000, -6898.000000)">
        <g id="Footer" transform="translate(0.000000, 6880.000000)">
            <g id="icon_mailchimp" transform="translate(1067.000000, 18.000000)">
                <g id="mc_freddie_black_web">
                    <g id="Group-3">
                        <mask id="mask-2" fill="white">
                            <use xlink:href="#path-1"></use>
                        </mask>
                        <g id="Clip-2"></g>
                        <path d="M14.5304946,18.3550861 C14.566789,18.4432707 14.6236418,18.4841941 14.6304946,18.4889671 C14.5893778,18.4618936 14.5540987,18.4140845 14.5304946,18.3550861 Z M14.5296299,18.3483568 C14.5316299,18.3623568 14.5336299,18.3763568 14.5346299,18.3903568 C14.5336299,18.3763568 14.5316299,18.3623568 14.5296299,18.3483568 Z M14.5460648,18.2672144 C14.5420648,18.2601721 14.5380648,18.2528169 14.5350648,18.2453834 C14.5170648,18.2089202 14.5150648,18.1709703 14.5350648,18.1327856 C14.5180648,18.1743349 14.5200648,18.2117371 14.5350648,18.2453834 C14.5380648,18.2526604 14.5410648,18.2600156 14.5460648,18.2672144 Z M14.5299479,18.3700313 C14.5279479,18.3370038 14.5249479,18.3039763 14.5229479,18.2700313 C14.5249479,18.3039763 14.5279479,18.3370038 14.5299479,18.3700313 Z M22.8926826,17.5141628 C22.8598231,17.5780908 22.5156633,19.4337246 20.5456666,20.9744131 C18.0584867,22.9197966 14.7906191,22.7229264 13.5563446,21.6327856 C12.8970324,21.0189358 12.6116738,20.1410798 12.6116738,20.1410798 C12.6116738,20.1410798 12.5369931,20.635759 12.5241795,20.8301252 C12.026885,19.9881064 12.068942,18.9597809 12.068942,18.9597809 C12.068942,18.9597809 11.8036292,19.4521909 11.6820963,19.7280908 C11.3160825,18.8007042 11.5052211,17.8431925 11.5052211,17.8431925 L11.2156174,18.2728482 C11.2156174,18.2728482 11.0798559,17.2233177 11.413246,16.349061 C11.769512,15.4149452 12.4604258,14.7363067 12.5969735,14.6517214 C12.072794,14.4859155 11.4689027,14.0104851 11.4678808,14.0096244 C11.4678808,14.0096244 11.7079594,14.0255086 11.8749296,13.9873239 C11.8749296,13.9873239 10.815172,13.2316119 10.6293351,12.0753521 C10.7828628,12.264241 11.1050115,12.4774648 11.1050115,12.4774648 C11.0006944,12.1748826 10.9376482,11.5017214 11.0351261,10.8392019 L11.0354406,10.8384977 C11.2358991,9.5728482 12.2839437,8.7486698 13.4709728,8.75899844 C14.7348051,8.77010955 15.5815264,9.03403756 16.6409695,8.06165884 C16.8651687,7.85586854 17.0441664,7.67834116 17.358847,7.60891236 C17.3920996,7.60156495 17.4744055,7.56722222 17.6432624,7.56723787 C17.8141631,7.56723787 17.978775,7.60552426 18.129394,7.69477308 C18.7039633,8.03521127 18.8278546,8.92308294 18.889643,9.57410016 C19.1180085,11.9889671 19.0256404,11.5589202 20.0074943,12.0567293 C20.4758598,12.293662 21.0022404,12.5191706 21.6011006,13.1573552 C21.60283,13.1591549 21.60566,13.1625978 21.60566,13.1625978 C21.60566,13.1625978 21.6108483,13.1625978 21.6128922,13.1625978 C22.1178906,13.1746479 22.3782509,13.5705008 22.1452473,13.8586854 C20.4503898,15.8733177 18.0832493,16.8380282 15.4451359,16.9187793 C15.3361022,16.921518 15.0910711,16.9271518 15.0898133,16.92723 C14.0243171,16.9593114 13.6774058,18.3313772 14.3459155,19.1564945 C14.7684507,19.6780125 15.5812119,19.849374 16.2501146,19.8518779 L16.259548,19.8485915 C19.1439502,19.9068075 22.041795,17.8751956 22.5422339,16.7548513 C22.54585,16.7467136 22.5765084,16.6754304 22.5765084,16.6754304 C22.4604782,16.8107981 19.6510711,19.4437402 16.2368293,19.3484351 C16.2368293,19.3484351 15.8635047,19.3407668 15.5120341,19.2592332 C15.048621,19.1519562 14.6964428,18.9492175 14.5617032,18.4894366 C14.8449394,18.5459311 15.2034851,18.5821596 15.6196528,18.5821596 C18.0839568,18.5821596 19.8598624,17.4669797 19.67434,17.4521127 C19.6671078,17.4521909 19.6595611,17.4538341 19.6475336,17.4564945 C19.3602096,17.52277 16.3979037,18.6650235 14.5252276,18.0794992 C14.5298657,18.02277 14.5384343,17.9672144 14.5518768,17.9176839 C14.718454,17.3625196 15.0145038,17.4401408 15.4928529,17.4194053 L15.4929315,17.4194053 C17.2014674,17.3627543 18.5802293,16.935133 19.6134163,16.4468701 C20.7153095,15.9262128 21.5550344,15.2553208 21.8575303,14.9166667 C22.2499574,15.5743349 22.2475991,16.4187793 22.2475991,16.4187793 C22.2475991,16.4187793 22.4015198,16.3652582 22.6052801,16.3652582 C23.2456469,16.3653365 23.3773993,16.935446 22.8926826,17.5141628 Z M8.1305208,9.34788732 L8.1305208,9.34796557 C8.1305208,9.34796557 9.22345234,7.28 11.6247887,5.91220657 C11.4459482,5.8836072 11.0087914,5.93906886 10.9317524,5.94798905 C11.3680445,5.57453052 12.1784474,5.32517997 12.7384736,5.21180751 C12.5745693,5.10800469 12.184186,5.08179969 11.990488,5.07666667 C11.9332591,5.07514867 11.933888,5.07539906 11.8661251,5.07825509 C12.3928988,4.78511737 13.3694858,4.61307512 14.2573207,4.7685133 C14.1457714,4.62104851 13.8926433,4.51346635 13.7152964,4.46112676 C13.69981,4.45655712 13.6302391,4.43931925 13.6302391,4.43931925 C13.6302391,4.43931925 13.6895906,4.42535211 13.6970586,4.42392801 C14.2318506,4.3214554 14.8566525,4.43210485 15.3508811,4.62965571 C15.2947527,4.49996088 15.1575762,4.34895149 15.0545169,4.25341158 C15.043983,4.24363067 14.9823518,4.19955399 14.9823518,4.19955399 C15.4994563,4.30620501 15.9949427,4.53075117 16.3678742,4.78564945 C16.31717,4.68813772 16.1917065,4.52408451 16.105077,4.43446792 C16.5991484,4.57518779 17.153829,4.92593114 17.3915493,5.4286698 C17.3973665,5.43996088 17.4124599,5.48129108 17.4141893,5.48601721 C17.4141107,5.48611111 17.4140321,5.48619718 17.4139535,5.48628326 C16.4778513,4.76982003 13.7452473,4.97271518 11.0095775,6.73762128 C9.75706518,7.54570423 8.83849329,8.42957746 8.1305208,9.34788732 Z M5.00255748,18.7524257 C3.59908811,18.7524257 2.4613639,17.5602504 2.4613639,16.0895149 C2.4613639,14.6188576 3.59908811,13.4266823 5.00255748,13.4266823 C5.36637799,13.4266823 5.71234589,13.5068075 6.02525778,13.6510955 C6.02525778,13.6510955 6.56540321,13.9222222 6.71733508,15.2032081 C6.87553226,14.8029734 6.95526761,14.4744914 6.95526761,14.4744914 C7.13634065,15.0255086 7.22901539,15.6051643 7.19264199,16.1910798 L7.19264985,16.1910798 C7.34278939,15.9921753 7.50398166,15.6176839 7.50398166,15.6176839 C7.78325581,17.2543036 6.58338159,18.7524257 5.00255748,18.7524257 Z M1.12795283,13.1669797 C0.331778578,11.8296557 1.7169001,9.08286385 2.70253521,7.52154147 C5.13842123,3.6628795 9.19279397,0.617652582 11.0342614,1.05256651 L11.5407534,0.859381847 C11.5424828,0.86084507 12.923603,2.02269953 12.9253325,2.02415493 C13.8764494,1.4556964 15.0884769,0.876095462 16.2215002,0.760970266 C15.5319227,0.91541471 14.6916476,1.27127543 13.6961939,1.87764476 C13.671903,1.89161972 11.340452,3.45783255 9.91609564,4.86415493 C9.13981002,5.63053991 6.02279725,9.35109546 6.02525778,9.34796557 C6.59492172,8.27480438 6.97024304,7.74808294 7.87204717,6.6191471 C8.38207665,5.98065728 8.926302,5.35973396 9.4834982,4.78638498 C9.74212905,4.52019562 10.0035899,4.26426448 10.2657583,4.02157277 C10.4459351,3.85469484 10.6265051,3.69409233 10.8066033,3.5407277 C10.8895382,3.47011737 10.9723944,3.40104069 11.0550934,3.33359155 C11.0552506,3.33348983 11.0554078,3.33338811 11.0554864,3.33327856 L9.22856207,1.83168232 L9.32525385,2.50463224 L10.6531543,3.6691784 C10.6531543,3.6691784 9.47799541,4.45665102 8.89352113,4.95304382 C6.55073436,6.94289515 4.25181264,9.99757433 3.39631838,12.9710485 L3.43709401,12.9696401 C3.01104487,13.2032864 2.58813233,13.5783255 2.21876973,14.0884194 C2.20876253,14.085759 1.26251163,13.3945227 1.12795283,13.1669797 Z M23.9134491,16.279108 C23.7404258,15.9114241 23.4107304,15.6577465 22.9969211,15.5604851 C22.8587226,14.9316901 22.6671471,14.62277 22.649774,14.5769953 C22.7228038,14.4942879 22.793318,14.4110329 22.8090403,14.3917058 C23.3933574,13.6704225 23.0120144,12.6135368 22.0134163,12.364554 C21.4515821,11.8264476 20.9432034,11.5735524 20.5256993,11.3658842 C20.1253325,11.1667449 20.2853063,11.2448357 19.9097805,11.0761346 C19.8101015,10.5902973 19.7771634,9.45962441 19.6184474,8.66580595 C19.4758467,7.95195618 19.1888372,7.43503912 18.7461775,7.095 C18.5690665,6.71313772 18.3208123,6.32846635 18.0213036,6.04541471 C19.4138225,3.92053208 19.7803865,1.82174491 18.7605634,0.722644757 C18.3062692,0.233051643 17.6317851,0.000665101721 16.8252342,0.000704225352 C15.6894595,0.000766823161 14.2923813,0.461768388 12.8816246,1.31450704 C12.8816246,1.31450704 11.9635244,0.578959311 11.9437144,0.563411581 C8.01464789,-2.51615806 -3.09658958,11.093349 0.825763511,14.0674491 L1.83829152,14.8376369 C1.2026885,16.5977308 2.08661644,18.6956964 3.92895644,19.3694053 C4.33623321,19.5183099 4.77780806,19.5906886 5.23546675,19.5652582 C5.23546675,19.5652582 8.21180478,24.9981221 14.4912676,25 C21.7554143,25.0021909 23.6042712,17.9286385 23.6238454,17.8649452 C23.6238454,17.8649452 24.2125647,16.9989828 23.9134491,16.279108 Z" id="Fill-1" fill="#FFFFFF" mask="url(#mask-2)"></path>
                    </g>
                    <path d="M12.484245,2.29801252 L11.9252407,1.83155712 L12.1282935,2.53389671 C12.24,2.45779343 12.3590174,2.3787011 12.484245,2.29801252" id="Fill-5" fill="#FFFFFF"></path>
                    <path d="M17.5680314,11.2745696 C17.8577137,11.2496088 18.1393777,11.300313 18.3791418,11.4197966 C18.3605896,10.7332551 17.958965,9.9599374 17.6556043,10.0647105 L17.6556043,10.0646322 C17.6553685,10.0647887 17.6554471,10.0647105 17.6552899,10.0647887 C17.4777858,10.122457 17.4479135,10.4325509 17.4516869,10.6201878 C17.4602555,10.8454617 17.4951589,11.0536776 17.5680314,11.2745696" id="Fill-10" fill="#FFFFFF"></path>
                    <path d="M11.9051949,2.68856808 L10.7519686,2.33804382 L11.5140255,2.97307512 C11.6250246,2.88974178 11.7564625,2.79342723 11.9051949,2.68856808" id="Fill-11" fill="#FFFFFF"></path>
                    <path d="M14.8315755,12.2521909 C15.0583688,12.3400626 15.2119751,12.40759 15.2549754,12.35759 C15.2765149,12.3332551 15.2622077,12.2745696 15.2088307,12.1969484 C15.0679594,11.991784 14.7986374,11.8164319 14.558716,11.7286385 C14.0108745,11.5257433 13.3697216,11.6406886 12.9030069,12.0113459 C12.6709466,12.199061 12.5682018,12.39241 12.6743269,12.4081377 C12.7394956,12.4178404 12.8751785,12.3616588 13.0665968,12.2890454 C13.8235441,12.0037559 14.251189,12.0366197 14.8315755,12.2521909" id="Fill-12" fill="#FFFFFF"></path>
                    <path d="M14.9170259,12.935446 C15.0582116,12.9449139 15.1528595,12.9533646 15.174792,12.9151017 C15.2233737,12.8330203 14.8490272,12.5507825 14.3375041,12.6372457 C14.2737504,12.6469484 14.2147134,12.6665884 14.1566983,12.6820814 C14.1353947,12.6873239 14.1150344,12.6948357 14.0952244,12.7031299 C13.9694464,12.7557903 13.8605699,12.8126761 13.7549165,12.9134585 C13.633698,13.0301252 13.5992663,13.1384194 13.6343269,13.1650235 C13.6687586,13.19241 13.7526368,13.1518779 13.8823452,13.099687 C14.3167507,12.9199531 14.6241205,12.91518 14.9170259,12.935446" id="Fill-13" fill="#FFFFFF"></path>
                    <path d="M5.9062247,15.1798905 C6.03981657,15.3681534 5.9973115,15.4780125 6.05213495,15.5313772 C6.07191353,15.5507042 6.10018212,15.5568075 6.12838782,15.5453052 C6.20411399,15.514241 6.24135211,15.3942879 6.24847429,15.3105634 C6.24848215,15.3105634 6.24852932,15.3100156 6.24852932,15.3100156 L6.24852145,15.3100156 C6.2675375,15.1088419 6.16070488,14.8827074 6.01904749,14.722457 L6.01867016,14.7219875 L6.0186623,14.7219875 C5.83438978,14.5089202 5.54407075,14.3447574 5.21524795,14.293975 C4.91564494,14.2475743 4.62091582,14.306964 4.53863348,14.3314554 L4.53903439,14.3312989 C4.49661579,14.3435837 4.44414281,14.3546166 4.39907501,14.372144 C3.59336521,14.6849765 3.24438651,15.4672144 3.41171045,16.2456182 C3.45309139,16.4336463 3.53762201,16.6453834 3.66954733,16.784507 C3.66954733,16.784507 3.66995611,16.7848983 3.66996397,16.7848983 C3.83497674,16.9624413 4.01580609,16.9284038 3.93859417,16.763302 C3.9201677,16.7176056 3.82051228,16.5306729 3.80710907,16.1922535 C3.79343072,15.8441315 3.87462823,15.4824726 4.09826924,15.206025 C4.26434327,15.0038341 4.46841795,14.9132238 4.49228431,14.9 C4.52089093,14.8848983 4.55068457,14.8745696 4.58293089,14.8595462 C4.59551654,14.8543036 4.61014609,14.8498435 4.62615919,14.8453834 C4.72871536,14.8165884 4.67051163,14.829108 4.77445136,14.8071205 L4.77435703,14.8071987 C5.32848739,14.6902973 5.72892499,14.9298905 5.9062247,15.1798905" id="Fill-15" fill="#FFFFFF"></path>
                    <path d="M5.65578513,15.756964 C5.60180282,15.7143975 5.57668654,15.6780125 5.56183688,15.6220657 C5.539755,15.5201878 5.55126368,15.4609546 5.63874222,15.3998435 C5.70610416,15.3538341 5.76035375,15.3316901 5.76053456,15.3028169 C5.76358467,15.2482786 5.53819063,15.1920188 5.38061448,15.3464006 C5.24975041,15.485133 5.20844808,15.7744131 5.41719227,15.9998435 C5.64957484,16.2494523 6.01098198,16.3083725 6.06729905,16.622144 C6.07469636,16.6666667 6.08020701,16.7161972 6.07633934,16.7650235 C6.07716476,16.821205 6.05830593,16.9019562 6.05737046,16.9070423 C5.9874851,17.2101721 5.69843171,17.4994523 5.22183557,17.4256651 C5.13403472,17.412989 5.07713593,17.4022692 5.06021094,17.4263693 C5.0234602,17.4773083 5.22769997,17.7099374 5.60161415,17.7014867 C6.13556502,17.6902191 6.57716345,17.15 6.47175368,16.5463224 C6.3763983,16.0201878 5.85110252,15.9120501 5.65578513,15.756964" id="Fill-16" fill="#FFFFFF"></path>
                    <path d="M18.0879659,12.3169797 C18.0570717,12.5143192 18.1492041,12.69241 18.2937701,12.714867 C18.4383361,12.7373239 18.5805437,12.5955399 18.6115165,12.3982786 C18.6424107,12.200939 18.5502784,12.02277 18.4057124,12.000313 C18.2611464,11.977856 18.1188601,12.1196401 18.0879659,12.3169797" id="Fill-17" fill="#FFFFFF"></path>
                    <path d="M17.0333967,13.0337246 C17.232283,13.1421753 17.4578972,13.1130673 17.5373731,12.9687011 C17.616849,12.8244131 17.52,12.6194836 17.3211923,12.5110329 C17.1223059,12.4025039 16.8966918,12.4316119 16.8172945,12.5759781 C16.7378185,12.720266 16.8345889,12.9251956 17.0333967,13.0337246" id="Fill-18" fill="#FFFFFF"></path>
                </g>
            </g>
        </g>
    </g>
</svg>