<?xml version="1.0" encoding="UTF-8"?>
<svg width="413px" height="290px" viewBox="0 0 413 290" version="1.1" xmlns="http://www.w3.org/2000/svg" xmlns:xlink="http://www.w3.org/1999/xlink">
    <!-- Generator: Sketch 48.2 (47327) - http://www.bohemiancoding.com/sketch -->
    <title>icon_Care</title>
    <desc>Created with Sketch.</desc>
    <defs>
        <polygon id="path-1" points="1.50197143 1.68633094 143.369579 1.68633094 143.369579 110.601809 1.50197143 110.601809"></polygon>
        <polygon id="path-3" points="0 2.07016064 412.999406 2.07016064 412.999406 212.899238 0 212.899238"></polygon>
        <polygon id="path-5" points="0 2.07037143 138.876939 2.07037143 138.876939 91.4486727 0 91.4486727"></polygon>
    </defs>
    <g id="OnePager-–-Start" stroke="none" stroke-width="1" fill="none" fill-rule="evenodd" transform="translate(-235.000000, -3769.000000)">
        <g id="Proof-of-Care" transform="translate(235.000000, 3698.000000)">
            <g id="icon_Care" transform="translate(0.000000, 69.000000)">
                <g id="Page-1">
                    <path d="M311.809732,205.540132 L334.977768,157.416463 C339.699875,147.593586 351.206982,143.124809 361.295982,147.13406 C361.346554,147.15514 361.397125,147.176219 361.447696,147.19519 C372.088768,151.514305 377.179625,163.668535 372.813625,174.29242 L368.059911,185.852219" id="Fill-1" fill="#E0B394"></path>
                    <path d="M180.852068,113.868442 L180.852068,181.083486 L248.042532,181.083486 C285.090318,181.083486 315.230889,150.929781 315.230889,113.868442 C315.230889,86.3686007 298.628711,62.6861906 274.929675,52.2899604 C255.857925,48.4936079 249.477496,48.8013633 242.985389,52.1740252 C234.371389,56.647018 227.693854,55.1988813 219.077746,60.4518022 C208.719032,66.7692194 193.711961,86.0966799 186.895354,96.3263849 C183.218389,101.844903 183.218389,102.763953 180.887889,112.489867 C180.877354,112.949392 180.852068,113.406809 180.852068,113.868442" id="Fill-3" fill="#85BD3E"></path>
                    <path d="M278.227143,6.23921367 C269.737464,10.1051273 260.990714,14.3230626 252.15125,18.9077748 C302.644714,21.0683863 343.063929,62.8324799 343.063929,113.869286 C343.063929,166.282559 300.436429,208.923545 248.042321,208.923545 L153.020714,208.923545 L153.020714,113.869286 C153.020714,104.375242 154.426179,95.205818 157.026393,86.5507245 C149.508107,94.2804439 142.556643,102.435962 136.357429,111.023602 C136.33425,111.970055 136.321607,112.916509 136.321607,113.869286 L136.321607,225.62876 L248.042321,225.62876 C309.743679,225.62876 359.760929,175.591106 359.760929,113.869286 C359.760929,62.609041 325.262786,19.4136741 278.227143,6.23921367" id="Fill-5" fill="#85BD3E"></path>
                    <g id="Group-9" transform="translate(134.857143, 0.421583)">
                        <mask id="mask-2" fill="white">
                            <use xlink:href="#path-1"></use>
                        </mask>
                        <g id="Clip-8"></g>
                        <path d="M113.184757,18.3911252 C114.560721,18.3911252 115.930364,18.4269597 117.293686,18.4859813 C126.13315,13.903377 134.8799,9.68333381 143.369579,5.81742014 C133.767329,3.1277223 123.644614,1.68590935 113.184757,1.68590935 C52.4337214,1.68590935 3.01068571,50.1911108 1.50197143,110.601809 C7.69907857,102.014168 14.6505429,93.8586504 22.1709357,86.1289309 C33.9309,46.9891899 70.2791143,18.3911252 113.184757,18.3911252" id="Fill-7" fill="#75A838" mask="url(#mask-2)"></path>
                    </g>
                    <path d="M180.887046,112.489235 C181.125154,112.681055 181.590832,125.89135 181.590832,125.89135 C187.393904,117.955055 183.198582,101.778925 218.552225,74.4498245 C253.905868,47.1207237 275.166939,52.1733928 274.928832,52.2893281 C266.689904,48.6742561 257.599689,46.6548748 248.041689,46.6548748 C211.455368,46.6548748 181.626654,76.0644863 180.887046,112.489235" id="Fill-10" fill="#75A838"></path>
                    <g id="Group-14" transform="translate(0.000000, 78.414388)">
                        <mask id="mask-4" fill="white">
                            <use xlink:href="#path-3"></use>
                        </mask>
                        <g id="Clip-13"></g>
                        <path d="M397.037971,150.82839 L259.774471,208.102512 C245.981114,213.865548 230.565257,214.451548 216.371543,209.774088 L73.7285071,162.752858 C66.3998643,160.341404 58.4222214,160.710289 51.3443286,163.82157 L45.68665,166.298368 L13.4220786,91.4484619 L-0.000421428571,60.314577 L66.9203286,15.7153396 C87.3090429,2.12140432 112.921364,-1.80563885 136.07465,6.15805899 C137.012329,6.47213813 137.9479,6.8072964 138.87715,7.17828921 L264.747329,55.479023 C270.4619,57.6607137 274.690936,61.9924763 276.918186,67.1631885 C279.219186,72.498318 279.413043,78.7166633 276.890793,84.4691597 C272.36465,94.8443108 260.6384,100.012915 249.923579,96.3472532 L170.064971,69.0265842 C165.119507,67.3297137 159.988614,67.6817353 155.57415,69.5851813 C150.1019,71.9502604 145.714829,76.6825266 144.062829,82.9367065 C141.363579,93.1179295 146.966471,103.651174 156.90165,107.13134 L248.421186,139.127361 C256.565293,141.975153 265.425829,141.958289 273.550971,139.127361 L378.484579,102.396965 C391.350793,97.8881381 405.489721,104.114915 410.869257,116.595872 C410.89665,116.661217 410.924043,116.726563 410.943007,116.781368 C416.5459,130.023282 410.302436,145.288793 397.037971,150.82839" id="Fill-12" fill="#F7CBA4" mask="url(#mask-4)"></path>
                    </g>
                    <g id="Group-17" transform="translate(0.000000, 78.414388)">
                        <mask id="mask-6" fill="white">
                            <use xlink:href="#path-5"></use>
                        </mask>
                        <g id="Clip-16"></g>
                        <path d="M138.876939,7.1785 C138.876939,7.1785 45.1385821,31.3604856 15.9188321,87.0389173 C15.0822964,88.6367158 14.2478679,90.1017158 13.4218679,91.4486727 L-0.000632142857,60.3147878 L66.9201179,15.7155504 C87.3088321,2.12161511 112.921154,-1.80542806 136.074439,6.15826978 C137.012118,6.47234892 137.949796,6.80750719 138.876939,7.1785" id="Fill-15" fill="#E0B394" mask="url(#mask-6)"></path>
                    </g>
                </g>
            </g>
        </g>
    </g>
</svg>