<?xml version="1.0" encoding="UTF-8"?>
<svg width="270px" height="273px" viewBox="0 0 270 273" version="1.1" xmlns="http://www.w3.org/2000/svg" xmlns:xlink="http://www.w3.org/1999/xlink">
    <!-- Generator: Sketch 48.2 (47327) - http://www.bohemiancoding.com/sketch -->
    <title>icon_calendar</title>
    <desc>Created with Sketch.</desc>
    <defs>
        <polygon id="path-1" points="0.00164148539 1.68108133 269.999818 1.68108133 269.999818 246.6 0.00164148539 246.6"></polygon>
        <polygon id="path-3" points="0 1.68053333 269.999818 1.68053333 269.999818 52.0179867 0 52.0179867"></polygon>
        <polygon id="path-5" points="0.204689189 0.555306667 24.7710405 0.555306667 24.7710405 54.667932 0.204689189 54.667932"></polygon>
        <polygon id="path-7" points="1.60941892 0.555306667 26.1757703 0.555306667 26.1757703 54.667932 1.60941892 54.667932"></polygon>
        <polygon id="path-9" points="1.18909459 0.555306667 25.7554459 0.555306667 25.7554459 54.667932 1.18909459 54.667932"></polygon>
        <polygon id="path-11" points="0.7695 0.555306667 25.3358514 0.555306667 25.3358514 54.667932 0.7695 54.667932"></polygon>
        <polygon id="path-13" points="1.54264865 0.555306667 13.8258243 0.555306667 13.8258243 54.667932 1.54264865 54.667932"></polygon>
        <polygon id="path-15" points="1.12214189 0.555306667 13.4053176 0.555306667 13.4053176 54.667932 1.12214189 54.667932"></polygon>
        <polygon id="path-17" points="0.860351351 0.555306667 13.143527 0.555306667 13.143527 54.667932 0.860351351 54.667932"></polygon>
        <polygon id="path-19" points="0.283135135 0.555306667 12.5663108 0.555306667 12.5663108 54.667932 0.283135135 54.667932"></polygon>
    </defs>
    <g id="OnePager-–-Start" stroke="none" stroke-width="1" fill="none" fill-rule="evenodd" transform="translate(-296.000000, -1378.000000)">
        <g id="Token-Generation-Event" transform="translate(296.000000, 1367.000000)">
            <g id="icon_calendar" transform="translate(0.000000, 10.000000)">
                <g id="Page-1">
                    <path d="M256.288196,273.444511 L13.7114392,273.444511 C6.13866892,273.444511 0.00164189189,267.297777 0.00164189189,259.715284 L0.00164189189,42.2542707 C0.00164189189,34.6717773 6.13866892,28.525044 13.7114392,28.525044 L256.288196,28.525044 C263.860966,28.525044 269.999818,34.673604 269.999818,42.2542707 L269.999818,259.715284 C269.999818,267.297777 263.860966,273.444511 256.288196,273.444511" id="Fill-1" fill="#D7DEED"></path>
                    <g id="Group-5" transform="translate(0.000000, 26.844693)">
                        <mask id="mask-2" fill="white">
                            <use xlink:href="#path-1"></use>
                        </mask>
                        <g id="Clip-4"></g>
                        <path d="M256.288196,1.68108133 L227.715628,1.68108133 C235.288399,1.68108133 241.42725,7.82781467 241.42725,15.410308 L241.42725,207.456908 C241.42725,218.689081 232.332993,227.795015 221.115223,227.795015 L13.7114392,227.795015 C6.13866892,227.795015 0.00164189189,221.648281 0.00164189189,214.065788 L0.00164189189,218.972215 L0.00164189189,227.964895 L0.00164189189,232.869495 C-0.000182432432,240.451988 6.13866892,246.600548 13.7114392,246.600548 L256.288196,246.600548 C263.860966,246.600548 269.999818,240.451988 269.999818,232.871321 L269.999818,227.964895 L269.999818,218.972215 L269.999818,214.067615 L269.999818,15.410308 C269.999818,7.82781467 263.860966,1.68108133 256.288196,1.68108133" id="Fill-3" fill="#C7CFE2" mask="url(#mask-2)"></path>
                    </g>
                    <path d="M270,78.8617667 L0,78.8617667 L0,42.25354 C0,34.6728733 6.13885135,28.52614 13.7116216,28.52614 L256.288378,28.52614 C263.861149,28.52614 270,34.6728733 270,42.25354 L270,78.8617667 Z" id="Fill-6" fill="#FF4C4C"></path>
                    <g id="Group-10" transform="translate(0.000000, 26.844693)">
                        <mask id="mask-4" fill="white">
                            <use xlink:href="#path-3"></use>
                        </mask>
                        <g id="Clip-9"></g>
                        <path d="M269.167926,10.6896533 C268.706372,9.42742667 268.066034,8.25288 267.276101,7.19524 C266.748872,6.49014667 266.155966,5.83802667 265.508331,5.24801333 C265.345966,5.10005333 265.178128,4.95574667 265.010291,4.81692 C264.501304,4.39678667 263.963128,4.01318667 263.397588,3.66794667 C263.209682,3.55469333 263.018128,3.44326667 262.822926,3.33914667 C260.881845,2.28150667 258.654345,1.68053333 256.288196,1.68053333 L227.717453,1.68053333 C235.290223,1.68236 241.42725,7.82909333 241.42725,15.40976 L241.42725,26.66568 C241.42725,34.1312667 235.383264,40.1830133 227.92725,40.1830133 L-0.000182432432,40.1830133 L-0.000182432432,52.0179867 L241.42725,52.0179867 L269.999818,52.0179867 L269.999818,40.1830133 L269.999818,15.40976 C269.999818,13.7511467 269.706101,12.1619467 269.167926,10.6896533" id="Fill-8" fill="#F33A3A" mask="url(#mask-4)"></path>
                    </g>
                    <g id="Group-13" transform="translate(32.837838, 1.271360)">
                        <mask id="mask-6" fill="white">
                            <use xlink:href="#path-5"></use>
                        </mask>
                        <g id="Clip-12"></g>
                        <path d="M12.4878649,54.667932 C5.70502703,54.667932 0.204689189,49.1623587 0.204689189,42.3689853 L0.204689189,12.8537053 C0.204689189,6.06215867 5.7032027,0.554758667 12.4878649,0.554758667 C19.272527,0.554758667 24.7710405,6.06215867 24.7710405,12.8537053 L24.7710405,42.3689853 C24.7710405,49.1623587 19.272527,54.667932 12.4878649,54.667932" id="Fill-11" fill="#D7DEED" mask="url(#mask-6)"></path>
                    </g>
                    <g id="Group-16" transform="translate(91.216216, 1.271360)">
                        <mask id="mask-8" fill="white">
                            <use xlink:href="#path-7"></use>
                        </mask>
                        <g id="Clip-15"></g>
                        <path d="M13.8925946,54.667932 C7.10793243,54.667932 1.60941892,49.1623587 1.60941892,42.3689853 L1.60941892,12.8537053 C1.60941892,6.06215867 7.10793243,0.554758667 13.8925946,0.554758667 C20.6772568,0.554758667 26.1757703,6.06215867 26.1757703,12.8537053 L26.1757703,42.3689853 C26.1757703,49.1623587 20.6772568,54.667932 13.8925946,54.667932" id="Fill-14" fill="#D7DEED" mask="url(#mask-8)"></path>
                    </g>
                    <g id="Group-19" transform="translate(151.418919, 1.271360)">
                        <mask id="mask-10" fill="white">
                            <use xlink:href="#path-9"></use>
                        </mask>
                        <g id="Clip-18"></g>
                        <path d="M13.4722703,54.667932 C6.68760811,54.667932 1.18909459,49.1623587 1.18909459,42.3689853 L1.18909459,12.8537053 C1.18909459,6.06215867 6.68760811,0.554758667 13.4722703,0.554758667 C20.2569324,0.554758667 25.7554459,6.06215867 25.7554459,12.8537053 L25.7554459,42.3689853 C25.7554459,49.1623587 20.2569324,54.667932 13.4722703,54.667932" id="Fill-17" fill="#D7DEED" mask="url(#mask-10)"></path>
                    </g>
                    <g id="Group-22" transform="translate(211.621622, 1.271360)">
                        <mask id="mask-12" fill="white">
                            <use xlink:href="#path-11"></use>
                        </mask>
                        <g id="Clip-21"></g>
                        <path d="M13.0526757,54.667932 C6.26801351,54.667932 0.7695,49.1623587 0.7695,42.3689853 L0.7695,12.8537053 C0.7695,6.06215867 6.26801351,0.554758667 13.0526757,0.554758667 C19.8355135,0.554758667 25.3358514,6.06215867 25.3358514,12.8537053 L25.3358514,42.3689853 C25.3358514,49.1623587 19.8373378,54.667932 13.0526757,54.667932" id="Fill-20" fill="#D7DEED" mask="url(#mask-12)"></path>
                    </g>
                    <path d="M59.2272365,157.326416 L30.4813581,157.326416 C27.8433851,157.326416 25.705277,155.185563 25.705277,152.544203 L25.705277,123.761416 C25.705277,121.120056 27.8433851,118.979203 30.4813581,118.979203 L59.2272365,118.979203 C61.8652095,118.979203 64.0033176,121.120056 64.0033176,123.761416 L64.0033176,152.544203 C64.0033176,155.185563 61.8652095,157.326416 59.2272365,157.326416" id="Fill-23" fill="#266E96"></path>
                    <path d="M179.421568,157.326416 L150.675689,157.326416 C148.037716,157.326416 145.899608,155.185563 145.899608,152.544203 L145.899608,123.761416 C145.899608,121.120056 148.037716,118.979203 150.675689,118.979203 L179.421568,118.979203 C182.059541,118.979203 184.197649,121.120056 184.197649,123.761416 L184.197649,152.544203 C184.199473,155.185563 182.059541,157.326416 179.421568,157.326416" id="Fill-25" fill="#266E96"></path>
                    <path d="M239.519189,157.326416 L210.773311,157.326416 C208.135338,157.326416 205.99723,155.185563 205.99723,152.544203 L205.99723,123.761416 C205.99723,121.120056 208.135338,118.979203 210.773311,118.979203 L239.519189,118.979203 C242.157162,118.979203 244.29527,121.120056 244.29527,123.761416 L244.29527,152.544203 C244.297095,155.185563 242.157162,157.326416 239.519189,157.326416" id="Fill-27" fill="#266E96"></path>
                    <path d="M59.2272365,225.627492 L30.4813581,225.627492 C27.8433851,225.627492 25.705277,223.486639 25.705277,220.845279 L25.705277,192.062492 C25.705277,189.421132 27.8433851,187.278452 30.4813581,187.278452 L59.2272365,187.278452 C61.8652095,187.278452 64.0033176,189.421132 64.0033176,192.062492 L64.0033176,220.845279 C64.0033176,223.486639 61.8652095,225.627492 59.2272365,225.627492" id="Fill-29" fill="#266E96"></path>
                    <path d="M119.323946,225.627492 L90.5780676,225.627492 C87.9400946,225.627492 85.8019865,223.486639 85.8019865,220.845279 L85.8019865,192.062492 C85.8019865,189.421132 87.9400946,187.278452 90.5780676,187.278452 L119.323946,187.278452 C121.961919,187.278452 124.100027,189.421132 124.100027,192.062492 L124.100027,220.845279 C124.101851,223.486639 121.961919,225.627492 119.323946,225.627492" id="Fill-31" fill="#266E96"></path>
                    <path d="M179.421568,225.627492 L150.675689,225.627492 C148.037716,225.627492 145.899608,223.486639 145.899608,220.845279 L145.899608,192.062492 C145.899608,189.421132 148.037716,187.278452 150.675689,187.278452 L179.421568,187.278452 C182.059541,187.278452 184.197649,189.421132 184.197649,192.062492 L184.197649,220.845279 C184.199473,223.486639 182.059541,225.627492 179.421568,225.627492" id="Fill-33" fill="#266E96"></path>
                    <g id="Group-37" transform="translate(43.783784, 1.271360)">
                        <mask id="mask-14" fill="white">
                            <use xlink:href="#path-13"></use>
                        </mask>
                        <g id="Clip-36"></g>
                        <path d="M13.8258243,42.3689853 L13.8258243,12.8537053 C13.8258243,6.06215867 8.32548649,0.554758667 1.54264865,0.554758667 L1.54264865,54.667932 C8.32548649,54.667932 13.8258243,49.1623587 13.8258243,42.3689853" id="Fill-35" fill="#C7CFE2" mask="url(#mask-14)"></path>
                    </g>
                    <g id="Group-40" transform="translate(103.986486, 1.271360)">
                        <mask id="mask-16" fill="white">
                            <use xlink:href="#path-15"></use>
                        </mask>
                        <g id="Clip-39"></g>
                        <path d="M13.4053176,42.3689853 L13.4053176,12.8537053 C13.4053176,6.06215867 7.90680405,0.554758667 1.12214189,0.554758667 L1.12214189,54.667932 C7.90680405,54.667932 13.4053176,49.1623587 13.4053176,42.3689853" id="Fill-38" fill="#C7CFE2" mask="url(#mask-16)"></path>
                    </g>
                    <g id="Group-43" transform="translate(164.189189, 1.271360)">
                        <mask id="mask-18" fill="white">
                            <use xlink:href="#path-17"></use>
                        </mask>
                        <g id="Clip-42"></g>
                        <path d="M13.143527,42.3689853 L13.143527,12.8537053 C13.143527,6.06215867 7.64318919,0.554758667 0.860351351,0.554758667 L0.860351351,54.667932 C7.64318919,54.667932 13.143527,49.1623587 13.143527,42.3689853" id="Fill-41" fill="#C7CFE2" mask="url(#mask-18)"></path>
                    </g>
                    <g id="Group-46" transform="translate(224.391892, 1.271360)">
                        <mask id="mask-20" fill="white">
                            <use xlink:href="#path-19"></use>
                        </mask>
                        <g id="Clip-45"></g>
                        <path d="M12.5663108,42.3689853 L12.5663108,12.8537053 C12.5663108,6.06215867 7.06597297,0.554758667 0.283135135,0.554758667 L0.283135135,54.667932 C7.06597297,54.667932 12.5663108,49.1623587 12.5663108,42.3689853" id="Fill-44" fill="#C7CFE2" mask="url(#mask-20)"></path>
                    </g>
                    <path d="M239.519189,118.978837 L225.147162,118.978837 L225.147162,157.327877 L239.519189,157.327877 C242.157162,157.327877 244.297095,155.185197 244.297095,152.543837 L244.297095,123.761051 C244.297095,121.119691 242.157162,118.978837 239.519189,118.978837" id="Fill-47" fill="#1E608B"></path>
                    <path d="M179.263946,118.978837 L164.891919,118.978837 L164.891919,157.327877 L179.263946,157.327877 C181.901919,157.327877 184.041851,155.185197 184.041851,152.543837 L184.041851,123.761051 C184.041851,121.119691 181.901919,118.978837 179.263946,118.978837" id="Fill-49" fill="#1E608B"></path>
                    <path d="M59.2272365,118.978837 L44.8533851,118.978837 L44.8533851,157.327877 L59.2272365,157.327877 C61.8652095,157.327877 64.0033176,155.185197 64.0033176,152.543837 L64.0033176,123.761051 C64.0033176,121.119691 61.8652095,118.978837 59.2272365,118.978837" id="Fill-51" fill="#1E608B"></path>
                    <path d="M59.2272365,187.279 L44.8533851,187.279 L44.8533851,225.62804 L59.2272365,225.62804 C61.8652095,225.62804 64.0033176,223.487187 64.0033176,220.845827 L64.0033176,192.06304 C64.0033176,189.419853 61.8652095,187.279 59.2272365,187.279" id="Fill-53" fill="#1E608B"></path>
                    <path d="M119.323946,187.279 L104.951919,187.279 L104.951919,225.62804 L119.323946,225.62804 C121.961919,225.62804 124.100027,223.487187 124.100027,220.845827 L124.100027,192.06304 C124.101851,189.419853 121.961919,187.279 119.323946,187.279" id="Fill-55" fill="#1E608B"></path>
                    <path d="M179.263946,187.279 L164.891919,187.279 L164.891919,225.62804 L179.263946,225.62804 C181.901919,225.62804 184.041851,223.487187 184.041851,220.845827 L184.041851,192.06304 C184.041851,189.419853 181.901919,187.279 179.263946,187.279" id="Fill-57" fill="#1E608B"></path>
                    <path d="M124.262574,138.175825 C124.262574,137.543799 124.231561,136.919079 124.171358,136.301665 L124.171358,139.954999 C124.224264,139.366812 124.262574,138.776799 124.262574,138.175825" id="Fill-59" fill="#85BD3E"></path>
                    <path d="M98.1482838,152.822952 C97.2014595,152.366285 96.3075405,151.820112 95.4738243,151.195392 C91.5150405,148.228885 88.9482162,143.497819 88.9482162,138.174912 L88.9482162,121.923059 L105.020514,121.923059 L105.020514,119.067979 L86.094973,119.067979 L86.094973,138.174912 C86.094973,148.676419 94.5543649,157.195992 105.020514,157.280019 L105.020514,154.424939 C102.561324,154.401192 100.231662,153.829445 98.1482838,152.822952" id="Fill-61" fill="#85BD3E"></path>
                    <path d="M93.7014932,126.684265 L93.7014932,138.175825 C93.7014932,144.459559 98.7658176,149.579705 105.021426,149.665559 L105.021426,126.684265 L93.7014932,126.684265 Z" id="Fill-63" fill="#85BD3E"></path>
                    <path d="M105.020696,154.424939 C105.073601,154.424939 105.126507,154.428592 105.177588,154.428592 C105.126507,154.428592 105.073601,154.424939 105.020696,154.424939" id="Fill-65" fill="#75A838"></path>
                    <path d="M115.857,150.405907 C115.475716,150.740187 115.079838,151.0562 114.669365,151.353947 C115.079838,151.0562 115.475716,150.740187 115.857,150.405907" id="Fill-67" fill="#75A838"></path>
                    <path d="M114.041615,151.785771 C113.404926,152.204077 112.735399,152.578544 112.040331,152.903691 C112.735399,152.578544 113.404926,152.204077 114.041615,151.785771" id="Fill-69" fill="#75A838"></path>
                    <path d="M115.857,150.405907 C116.999027,149.404893 118.000581,148.24496 118.827,146.964467 C118.000581,148.24496 116.999027,149.404893 115.857,150.405907" id="Fill-71" fill="#75A838"></path>
                    <path d="M119.593034,145.641229 C119.357696,146.096069 119.102291,146.536296 118.826818,146.963736 C119.102291,146.536296 119.357696,146.096069 119.593034,145.641229" id="Fill-73" fill="#75A838"></path>
                    <path d="M115.694088,142.775372 C115.694088,142.775372 115.697736,142.769892 115.701385,142.758932 C115.708682,142.729705 115.725101,142.656639 115.737872,142.541559 C115.723277,142.620105 115.710507,142.694999 115.694088,142.775372" id="Fill-75" fill="#75A838"></path>
                    <path d="M123.556926,143.339081 C123.861588,142.248561 124.064088,141.114201 124.169899,139.954268 L124.169899,136.300935 C123.244966,126.785828 115.351115,119.316588 105.663953,119.073641 C105.503412,119.069988 105.341047,119.066335 105.178682,119.066335 L105.019966,119.066335 L105.019966,121.923241 L105.178682,121.923241 C105.583682,121.923241 105.985034,121.939681 106.382736,121.968908 C107.577669,122.056588 108.734291,122.275788 109.84348,122.608241 C110.67902,122.860321 111.485372,123.176335 112.258885,123.554455 C112.645642,123.742601 113.025101,123.945361 113.393615,124.162735 C114.130642,124.599308 114.831182,125.090681 115.487939,125.633201 C116.801453,126.716415 117.94348,128.004215 118.864764,129.447281 C119.324493,130.166988 119.729493,130.926881 120.074291,131.719655 C120.933547,133.699761 121.409696,135.882628 121.409696,138.175095 C121.409696,138.410735 121.404223,138.646375 121.393277,138.878361 C121.336723,140.228268 121.114155,141.536161 120.745642,142.780121 C120.450101,143.777481 120.063345,144.734655 119.592669,145.640681 C119.357331,146.095521 119.101926,146.535748 118.826453,146.963188 C118.000034,148.245508 116.99848,149.405441 115.856453,150.406455 C115.475169,150.740735 115.079291,151.056748 114.668818,151.354495 C114.464493,151.502455 114.254696,151.646761 114.04125,151.785588 C113.404561,152.203895 112.735034,152.578361 112.041791,152.903508 C111.346723,153.230481 110.624291,153.508135 109.879966,153.732815 C109.135642,153.959321 108.369426,154.132855 107.583142,154.251588 C107.322264,154.289948 107.059561,154.322828 106.793209,154.348401 C106.262331,154.401375 105.724155,154.428775 105.178682,154.428775 C105.125777,154.428775 105.074696,154.425121 105.019966,154.425121 L105.019966,157.280201 C105.074696,157.280201 105.125777,157.283855 105.178682,157.283855 C113.931791,157.283855 121.307534,151.383721 123.556926,143.339081" id="Fill-77" fill="#75A838"></path>
                    <path d="M105.178318,121.923972 C105.583318,121.923972 105.984669,121.938585 106.384196,121.967812 C105.984669,121.938585 105.583318,121.923972 105.178318,121.923972" id="Fill-79" fill="#75A838"></path>
                    <path d="M109.843297,122.608972 C110.678838,122.861052 111.485189,123.177065 112.258703,123.555185 C111.485189,123.177065 110.678838,122.861052 109.843297,122.608972" id="Fill-81" fill="#75A838"></path>
                    <path d="M113.39325,124.163648 C114.130277,124.598395 114.830818,125.089768 115.487574,125.632288 C114.830818,125.089768 114.130277,124.598395 113.39325,124.163648" id="Fill-83" fill="#75A838"></path>
                    <path d="M120.745642,142.780852 C121.114155,141.535065 121.336723,140.228999 121.393277,138.879092 C121.404223,138.645279 121.409696,138.411465 121.409696,138.175825 C121.409696,138.411465 121.404223,138.645279 121.393277,138.879092 C121.336723,140.228999 121.114155,141.535065 120.745642,142.780852" id="Fill-85" fill="#75A838"></path>
                    <path d="M105.178318,154.428409 C105.723791,154.428409 106.261966,154.401009 106.792845,154.349863 C106.261966,154.401009 105.723791,154.428409 105.178318,154.428409" id="Fill-87" fill="#75A838"></path>
                    <path d="M118.864399,129.446551 C119.324128,130.168084 119.730953,130.927977 120.073926,131.718924 C119.730953,130.927977 119.324128,130.168084 118.864399,129.446551" id="Fill-89" fill="#75A838"></path>
                    <path d="M109.879966,153.733728 C109.135642,153.960235 108.367601,154.133768 107.583142,154.250675 C108.369426,154.133768 109.135642,153.960235 109.879966,153.733728" id="Fill-91" fill="#75A838"></path>
                    <path d="M115.694088,142.775372 C115.710507,142.694999 115.723277,142.620105 115.737872,142.541559 C115.725101,142.656639 115.708682,142.729705 115.701385,142.758932 C116.312534,141.354225 116.655507,139.805212 116.655507,138.175825 C116.655507,131.919492 111.633142,126.815785 105.41402,126.689745 C105.335574,126.687919 105.257128,126.684265 105.178682,126.684265 L105.019966,126.684265 L105.019966,149.663732 C105.072872,149.663732 105.125777,149.667385 105.178682,149.667385 C109.874493,149.667385 113.91902,146.828745 115.694088,142.775372" id="Fill-93" fill="#75A838"></path>
                    <path d="M244.003378,206.611527 C244.003378,205.977673 243.970541,205.35478 243.912162,204.737367 L243.912162,208.388873 C243.965068,207.802513 244.003378,207.2125 244.003378,206.611527" id="Fill-95" fill="#85BD3E"></path>
                    <path d="M217.888358,221.258836 C216.941534,220.802169 216.047615,220.255996 215.213899,219.631276 C211.255115,216.664769 208.688291,211.931876 208.688291,206.610796 L208.688291,190.358943 L224.762412,190.358943 L224.762412,187.503863 L205.835047,187.503863 L205.835047,206.610796 C205.835047,217.112303 214.294439,225.631876 224.762412,225.715903 L224.762412,222.858996 C222.303223,222.835249 219.971736,222.265329 217.888358,221.258836" id="Fill-97" fill="#85BD3E"></path>
                    <path d="M213.441568,195.119053 L213.441568,206.61244 C213.441568,212.894347 218.505892,218.014493 224.7615,218.100347 L224.7615,195.119053 L213.441568,195.119053 Z" id="Fill-99" fill="#85BD3E"></path>
                    <path d="M224.7615,222.859727 C224.814405,222.859727 224.867311,222.86338 224.918392,222.86338 C224.867311,222.86338 224.814405,222.859727 224.7615,222.859727" id="Fill-101" fill="#75A838"></path>
                    <path d="M235.597074,218.841608 C235.217615,219.175888 234.819912,219.490075 234.409439,219.789648 C234.819912,219.490075 235.217615,219.175888 235.597074,218.841608" id="Fill-103" fill="#75A838"></path>
                    <path d="M233.782601,220.220559 C233.144088,220.638865 232.476385,221.013332 231.781318,221.338479 C232.476385,221.013332 233.144088,220.638865 233.782601,220.220559" id="Fill-105" fill="#75A838"></path>
                    <path d="M235.597074,218.841608 C236.739101,217.840595 237.740655,216.680661 238.567074,215.398341 C237.740655,216.680661 236.739101,217.840595 235.597074,218.841608" id="Fill-107" fill="#75A838"></path>
                    <path d="M239.333838,214.076931 C239.0985,214.529944 238.843095,214.971997 238.567622,215.399437 C238.843095,214.971997 239.0985,214.529944 239.333838,214.076931" id="Fill-109" fill="#75A838"></path>
                    <path d="M235.43398,211.210343 C235.43398,211.212169 235.437628,211.204863 235.441277,211.193903 C235.450399,211.164676 235.464993,211.093436 235.479588,210.978356 C235.464993,211.056903 235.450399,211.129969 235.43398,211.210343" id="Fill-111" fill="#75A838"></path>
                    <path d="M243.297912,211.774052 C243.602574,210.683532 243.80325,209.549172 243.910885,208.389239 L243.910885,204.735905 C242.985953,195.220799 235.092101,187.751559 225.404939,187.508612 C225.244399,187.504959 225.082034,187.503132 224.919669,187.503132 L224.760953,187.503132 L224.760953,190.358212 L224.919669,190.358212 C225.324669,190.358212 225.72602,190.374652 226.123723,190.403879 C227.316831,190.491559 228.475277,190.710759 229.584466,191.043212 C230.420007,191.295292 231.226358,191.613132 231.999872,191.989425 C232.386628,192.177572 232.764264,192.382159 233.132777,192.597705 C233.871628,193.034279 234.570345,193.525652 235.228926,194.068172 C236.542439,195.153212 237.684466,196.439185 238.60575,197.882252 C239.06548,198.603785 239.47048,199.361852 239.813453,200.154625 C240.674534,202.134732 241.150682,204.317599 241.150682,206.611892 C241.150682,206.847532 241.145209,207.081345 241.134264,207.313332 C241.077709,208.663239 240.855142,209.971132 240.486628,211.216919 C240.191088,212.212452 239.804331,213.169625 239.333655,214.077479 C239.098318,214.530492 238.842912,214.970719 238.567439,215.398159 C237.74102,216.682305 236.739466,217.840412 235.597439,218.841425 C235.216155,219.175705 234.820277,219.491719 234.409804,219.789465 C234.203655,219.937425 233.993858,220.081732 233.782236,220.220559 C233.145547,220.638865 232.47602,221.013332 231.782777,221.338479 C231.085885,221.665452 230.365277,221.943105 229.619128,222.167785 C228.876628,222.394292 228.108588,222.567825 227.324128,222.686559 C227.06325,222.724919 226.798723,222.757799 226.534196,222.783372 C226.003318,222.836345 225.463318,222.863745 224.919669,222.863745 C224.866764,222.863745 224.813858,222.860092 224.760953,222.860092 L224.760953,225.715172 C224.813858,225.716999 224.866764,225.720652 224.919669,225.720652 C233.672777,225.720652 241.04852,219.818692 243.297912,211.774052" id="Fill-113" fill="#75A838"></path>
                    <path d="M224.919304,190.358943 C225.324304,190.358943 225.725655,190.373556 226.125182,190.402783 C225.725655,190.373556 225.324304,190.358943 224.919304,190.358943" id="Fill-115" fill="#75A838"></path>
                    <path d="M229.584284,191.043943 C230.419824,191.296023 231.226176,191.613863 231.999689,191.990156 C231.226176,191.613863 230.419824,191.296023 229.584284,191.043943" id="Fill-117" fill="#75A838"></path>
                    <path d="M233.133142,192.598436 C233.870169,193.033183 234.570709,193.524556 235.227466,194.068903 C234.570709,193.524556 233.870169,193.033183 233.133142,192.598436" id="Fill-119" fill="#75A838"></path>
                    <path d="M240.486628,211.216553 C240.855142,209.970767 241.077709,208.6647 241.134264,207.312967 C241.145209,207.08098 241.150682,206.847167 241.150682,206.611527 C241.150682,206.847167 241.145209,207.08098 241.134264,207.312967 C241.077709,208.6647 240.855142,209.970767 240.486628,211.216553" id="Fill-121" fill="#75A838"></path>
                    <path d="M224.919304,222.86338 C225.462953,222.86338 226.002953,222.83598 226.533831,222.784833 C226.002953,222.83598 225.462953,222.86338 224.919304,222.86338" id="Fill-123" fill="#75A838"></path>
                    <path d="M238.605203,197.881339 C239.064932,198.602872 239.469932,199.362765 239.81473,200.153712 C239.469932,199.362765 239.064932,198.602872 238.605203,197.881339" id="Fill-125" fill="#75A838"></path>
                    <path d="M229.619858,222.168516 C228.875534,222.395023 228.109318,222.568556 227.324858,222.685463 C228.109318,222.568556 228.875534,222.395023 229.619858,222.168516" id="Fill-127" fill="#75A838"></path>
                    <path d="M235.43398,211.210343 C235.450399,211.129969 235.464993,211.056903 235.479588,210.978356 C235.464993,211.093436 235.450399,211.164676 235.441277,211.193903 C236.05425,209.789196 236.397223,208.240183 236.397223,206.610796 C236.397223,200.354463 231.374858,195.252583 225.153912,195.124716 C225.075466,195.122889 224.998845,195.119236 224.918574,195.119236 L224.761682,195.119236 L224.761682,218.098703 C224.814588,218.100529 224.867493,218.102356 224.918574,218.102356 C229.616209,218.102356 233.658912,215.263716 235.43398,211.210343" id="Fill-129" fill="#75A838"></path>
                </g>
            </g>
        </g>
    </g>
</svg>