<?xml version="1.0" encoding="UTF-8"?>
<svg width="24px" height="20px" viewBox="0 0 24 20" version="1.1" xmlns="http://www.w3.org/2000/svg" xmlns:xlink="http://www.w3.org/1999/xlink">
    <!-- Generator: Sketch 48.2 (47327) - http://www.bohemiancoding.com/sketch -->
    <title>icon_twitter</title>
    <desc>Created with Sketch.</desc>
    <defs></defs>
    <g id="OnePager-–-Start" stroke="none" stroke-width="1" fill="none" fill-rule="evenodd" transform="translate(-1257.000000, -6901.000000)">
        <g id="Footer" transform="translate(0.000000, 6880.000000)" fill="#FFFFFF">
            <path d="M1280.61829,23.3266305 C1280.08503,23.5634697 1279.53154,23.7504566 1278.96352,23.8857116 C1279.58938,23.2898542 1280.05991,22.5446035 1280.32544,21.7128059 C1280.40122,21.4753129 1280.14377,21.2699378 1279.92971,21.397102 C1279.13948,21.8666942 1278.28832,22.2189292 1277.39979,22.4442451 C1277.34824,22.4572394 1277.29513,22.4638591 1277.2417,22.4638591 C1277.07985,22.4638591 1276.92249,22.4037095 1276.79874,22.2944431 C1275.85344,21.4597034 1274.63754,21 1273.37516,21 C1272.829,21 1272.27747,21.085321 1271.73597,21.2535111 C1270.05827,21.7748352 1268.76374,23.1613007 1268.35757,24.8718878 C1268.20519,25.5135112 1268.16391,26.1557067 1268.23488,26.7805764 C1268.24304,26.8524127 1268.20911,26.9025102 1268.18822,26.926047 C1268.1516,26.9672364 1268.09955,26.990855 1268.04555,26.990855 C1268.03951,26.990855 1268.03331,26.9906098 1268.02711,26.989956 C1264.35472,26.6481818 1261.04298,24.8756472 1258.70215,21.9989253 C1258.58272,21.8522288 1258.35382,21.8702084 1258.2587,22.0337402 C1257.80025,22.8215697 1257.55805,23.7227518 1257.55805,24.6397069 C1257.55805,26.0449692 1258.12165,27.369242 1259.10049,28.33466 C1258.68885,28.2369168 1258.29044,28.0829468 1257.92033,27.8769997 C1257.74127,27.7772951 1257.52093,27.90544 1257.5184,28.1105699 C1257.49287,30.1982364 1258.71284,32.0558468 1260.54047,32.8923027 C1260.50368,32.8932017 1260.46689,32.8936103 1260.42993,32.8936103 C1260.14034,32.8936103 1259.84699,32.8655786 1259.55821,32.8102508 C1259.35655,32.7716765 1259.1872,32.9633218 1259.24985,33.1592167 C1259.84299,35.0146206 1261.43764,36.3822076 1263.34595,36.6927628 C1261.76223,37.7578854 1259.91788,38.3196635 1257.99831,38.3196635 L1257.39987,38.3193366 C1257.21551,38.3193366 1257.05953,38.4397176 1257.01255,38.6186137 C1256.96629,38.7948129 1257.05154,38.9807374 1257.20874,39.0723512 C1259.37181,40.3334505 1261.83908,41 1264.34493,41 C1266.53827,41 1268.59007,40.5639151 1270.44323,39.7040041 C1272.14205,38.9156025 1273.6433,37.7885323 1274.90528,36.3542577 C1276.08079,35.0182165 1277.00007,33.4758196 1277.63742,31.7699726 C1278.24492,30.1440527 1278.56609,28.4091115 1278.56609,26.7527082 L1278.56609,26.6737618 C1278.566,26.4078284 1278.686,26.1575863 1278.89557,25.9871896 C1279.69045,25.3406627 1280.3827,24.5794756 1280.953,23.7249584 C1281.10343,23.4993156 1280.86604,23.2165469 1280.61829,23.3266305" id="icon_twitter"></path>
        </g>
    </g>
</svg>