<?xml version="1.0" encoding="UTF-8"?>
<svg width="140px" height="165px" viewBox="0 0 140 165" version="1.1" xmlns="http://www.w3.org/2000/svg" xmlns:xlink="http://www.w3.org/1999/xlink">
    <!-- Generator: Sketch 49 (51002) - http://www.bohemiancoding.com/sketch -->
    <title>icon value</title>
    <desc>Created with Sketch.</desc>
    <defs>
        <polygon id="path-1" points="0 0.676839041 107.711371 0.676839041 107.711371 108.493038 0 108.493038"></polygon>
    </defs>
    <g id="OnePage" stroke="none" stroke-width="1" fill="none" fill-rule="evenodd">
        <g id="OnePager-–-Start" transform="translate(-1036.000000, -2284.000000)">
            <g id="Rethinking" transform="translate(171.000000, 1810.000000)">
                <g id="icon-value" transform="translate(865.000000, 474.000000)">
                    <g id="Page-1">
                        <polygon id="Fill-1" fill="#85BD3E" points="92.8213548 0.000565068493 46.1200645 46.7464212 71.0107097 46.7464212 71.0107097 146.14762 114.632 146.14762 114.632 46.7464212 139.265226 46.7464212"></polygon>
                        <g id="Group-9" transform="translate(0.000000, 56.276301)">
                            <g id="Group-4">
                                <mask id="mask-2" fill="white">
                                    <use xlink:href="#path-1"></use>
                                </mask>
                                <g id="Clip-3"></g>
                                <path d="M53.8554032,0.676839041 C83.598629,0.676839041 107.711371,24.8120445 107.711371,54.5843733 C107.711371,84.3578322 83.598629,108.493038 53.8554032,108.493038 C24.1121774,108.493038 -0.000564516129,84.3578322 -0.000564516129,54.5843733 C-0.000564516129,24.8120445 24.1121774,0.676839041 53.8554032,0.676839041" id="Fill-2" fill="#FCD462" mask="url(#mask-2)"></path>
                            </g>
                            <path d="M53.8598065,11.7056199 C30.2370645,11.7056199 11.0186774,30.9416815 11.0186774,54.5886678 C11.0186774,78.2356541 30.2370645,97.473976 53.8598065,97.473976 C77.4825484,97.473976 96.7020645,78.2356541 96.7020645,54.5886678 C96.7020645,30.9416815 77.4825484,11.7056199 53.8598065,11.7056199 M53.8598065,101.648702 C27.9372258,101.648702 6.84690323,80.5377432 6.84690323,54.5886678 C6.84690323,28.6407226 27.9372258,7.53089384 53.8598065,7.53089384 C79.7823871,7.53089384 100.873839,28.6407226 100.873839,54.5886678 C100.873839,80.5377432 79.7823871,101.648702 53.8598065,101.648702" id="Fill-5" fill="#F6C358"></path>
                            <path d="M55.3753065,30.2579486 L28.7922419,30.2579486 L28.7922419,56.867024 C28.7922419,71.5384623 40.7182097,83.4749692 55.3753065,83.4749692 C70.0324032,83.4749692 81.9572419,71.5384623 81.9572419,56.867024 C81.9572419,42.1955856 70.0324032,30.2579486 55.3753065,30.2579486" id="Fill-7" fill="#F6C358"></path>
                        </g>
                    </g>
                </g>
            </g>
        </g>
    </g>
</svg>