<?xml version="1.0" encoding="UTF-8"?>
<svg width="283px" height="284px" viewBox="0 0 283 284" version="1.1" xmlns="http://www.w3.org/2000/svg" xmlns:xlink="http://www.w3.org/1999/xlink">
    <!-- Generator: Sketch 48.2 (47327) - http://www.bohemiancoding.com/sketch -->
    <title>icon_DROPcoins</title>
    <desc>Created with Sketch.</desc>
    <defs></defs>
    <g id="OnePager-–-Start" stroke="none" stroke-width="1" fill="none" fill-rule="evenodd" transform="translate(-870.000000, -3194.000000)">
        <g id="Got-DROP" transform="translate(171.000000, 3098.000000)">
            <g id="icon_DROPcoins" transform="translate(699.000000, 96.000000)">
                <g id="Page-1">
                    <path d="M202,247.161396 C202,267.50777 160.585795,284 109.5,284 C58.4125039,284 17,267.50777 17,247.161396 L17,215 L202,215 L202,247.161396 Z" id="Fill-1" fill="#F6C358"></path>
                    <path d="M109.50085,179 C160.587343,179 202,195.341581 202,215.498298 C202,235.656716 160.587343,252 109.50085,252 C58.4143573,252 17,235.656716 17,215.498298 C17,195.341581 58.4143573,179 109.50085,179" id="Fill-3" fill="#FCD462"></path>
                    <path d="M109.498305,186.838213 C69.0507887,186.838213 36.141088,199.919641 36.141088,216 C36.141088,232.078649 69.0507887,245.160077 109.498305,245.160077 C149.949211,245.160077 182.858912,232.078649 182.858912,216 C182.858912,199.919641 149.949211,186.838213 109.498305,186.838213 M109.498305,248 C65.1123397,248 29,233.644796 29,216 C29,198.353494 65.1123397,184 109.498305,184 C153.88766,184 190,198.353494 190,216 C190,233.644796 153.88766,248 109.498305,248" id="Fill-5" fill="#F6C358"></path>
                    <path d="M124.810046,225.261349 C127.070336,224.541712 128.204752,223.632076 128.204752,222.534124 C128.204752,221.437853 127.316354,220.566889 125.541266,219.922914 C123.754219,219.278939 120.438101,218.676999 115.591205,218.11205 L115.591205,226.579565 C119.471114,226.423195 122.539505,225.98435 124.810046,225.261349 Z M99.2788467,204.632291 C97.2150292,205.336797 96.1899543,206.216167 96.1899543,207.26704 C96.1899543,208.317913 96.998055,209.148523 98.6159649,209.75887 C100.225332,210.37258 103.305683,210.959388 107.834805,211.524337 L107.834805,203.384695 C104.194081,203.5108 101.340956,203.927786 99.2788467,204.632291 Z M107.834805,235 L107.834805,231.566588 C96.752037,231.127743 86.8019766,229.419444 78,226.438327 L86.8532303,222.347489 C93.6426431,224.63587 100.630237,225.997801 107.834805,226.438327 L107.834805,217.311705 C98.6962624,216.465962 92.0042317,215.351196 87.7604216,213.97077 C83.5166115,212.592024 81.3947064,210.544083 81.3947064,207.83199 C81.3947064,205.119897 83.8326762,202.900453 88.7274089,201.173658 C93.6238501,199.448545 99.9895653,198.508644 107.834805,198.352274 L107.834805,196 L115.591205,196 L115.591205,198.397672 C124.485439,198.651563 132.892761,199.825178 140.818299,201.928605 L132.932056,206.256521 C127.593124,204.781936 121.820244,203.8723 115.591205,203.525932 L115.591205,212.37008 L115.956815,212.37008 C125.254245,213.219185 132.084661,214.364216 136.446354,215.805174 C140.818299,217.247812 143,219.342833 143,222.085191 C143,224.830912 140.493692,227.06717 135.479367,228.790601 C130.466751,230.517396 123.843058,231.457297 115.591205,231.613667 L115.591205,235 L107.834805,235 Z" id="Fill-7" fill="#F6C358"></path>
                    <path d="M218,204.160478 C218,224.507359 176.585795,241 125.5,241 C74.4142046,241 33,224.507359 33,204.160478 L33,172 L218,172 L218,204.160478 Z" id="Fill-9" fill="#F6C358"></path>
                    <path d="M125.5,135 C176.586963,135 218,151.343284 218,171.5 C218,191.658419 176.586963,208 125.5,208 C74.4130375,208 33,191.658419 33,171.5 C33,151.343284 74.4130375,135 125.5,135" id="Fill-11" fill="#FCD462"></path>
                    <path d="M124.498305,142.838213 C84.0507887,142.838213 51.1393926,155.919641 51.1393926,172.00171 C51.1393926,188.080359 84.0507887,201.161787 124.498305,201.161787 C164.949211,201.161787 197.858912,188.080359 197.858912,172.00171 C197.858912,155.919641 164.949211,142.838213 124.498305,142.838213 M124.498305,204 C80.1106443,204 44,189.646506 44,172.00171 C44,154.355204 80.1106443,140 124.498305,140 C168.88766,140 205,154.355204 205,172.00171 C205,189.646506 168.88766,204 124.498305,204" id="Fill-13" fill="#F6C358"></path>
                    <path d="M138.811276,182.261769 C141.071626,181.542162 142.206072,180.632566 142.206072,179.534661 C142.206072,178.438438 141.31765,177.56583 139.542515,176.921883 C137.755421,176.279617 134.439217,175.676022 129.592193,175.112778 L129.592193,183.578246 C133.472204,183.423564 136.540676,182.984739 138.811276,182.261769 Z M113.277697,161.633601 C111.215534,162.338076 110.188724,163.217408 110.188724,164.268236 C110.188724,165.319064 110.998554,166.149638 112.616507,166.759959 C114.225917,167.373642 117.304639,167.960424 121.835589,168.525349 L121.835589,160.384377 C118.193061,160.510476 115.341569,160.927444 113.277697,161.633601 Z M121.835589,192 L121.835589,188.565054 C110.75253,188.126229 100.802208,186.418003 92,183.438696 L100.851755,179.346353 C107.643054,181.636317 114.630832,182.998189 121.835589,183.438696 L121.835589,174.310786 C112.695098,173.466762 106.0046,172.350362 101.760678,170.971676 C97.5167565,169.591309 95.3947956,167.545137 95.3947956,164.833161 C95.3947956,162.121185 97.8328295,159.900155 102.727691,158.175116 C107.622552,156.448396 113.988435,155.510217 121.835589,155.352173 L121.835589,153 L129.592193,153 L129.592193,155.397569 C138.486661,155.651449 146.894204,156.826694 154.81995,158.92835 L146.9335,163.256079 C141.594428,161.783238 135.821396,160.873642 129.592193,160.527289 L129.592193,169.371055 L129.957813,169.371055 C139.255487,170.220124 146.084374,171.365106 150.447891,172.806001 C154.81995,174.248577 157,176.341826 157,179.085748 C157,181.83135 154.493626,184.06583 149.480878,185.790869 C144.466421,187.515908 137.844263,188.45745 129.592193,188.612131 L129.592193,192 L121.835589,192 Z" id="Fill-15" fill="#F6C358"></path>
                    <path d="M185,156.160478 C185,176.507359 143.585795,193 92.5,193 C41.4125039,193 0,176.507359 0,156.160478 L0,124 L185,124 L185,156.160478 Z" id="Fill-17" fill="#F6C358"></path>
                    <path d="M92.5,88 C143.586963,88 185,104.341581 185,124.498298 C185,144.656716 143.586963,161 92.5,161 C41.4130375,161 0,144.656716 0,124.498298 C0,104.341581 41.4130375,88 92.5,88" id="Fill-19" fill="#FCD462"></path>
                    <path d="M91.4991523,94.8382133 C51.050367,94.8382133 18.1410128,107.919641 18.1410128,124 C18.1410128,140.080359 51.050367,153.161787 91.4991523,153.161787 C131.949633,153.161787 164.858987,140.080359 164.858987,124 C164.858987,107.919641 131.949633,94.8382133 91.4991523,94.8382133 M91.4991523,156 C47.1119594,156 11,141.644796 11,124 C11,106.355204 47.1119594,92 91.4991523,92 C135.888041,92 172,106.355204 172,124 C172,141.644796 135.888041,156 91.4991523,156" id="Fill-21" fill="#F6C358"></path>
                    <path d="M106.811276,134.261769 C109.071626,133.542162 110.206072,132.632566 110.206072,131.534661 C110.206072,130.438438 109.31765,129.56583 107.540807,128.921883 C105.755421,128.279617 102.439217,127.676022 97.5921935,127.111097 L97.5921935,135.578246 C101.472204,135.423564 104.540676,134.983057 106.811276,134.261769 Z M81.2776975,113.631919 C79.2155342,114.336394 78.1887239,115.217408 78.1887239,116.268236 C78.1887239,117.319064 78.9985543,118.149638 80.6165068,118.759959 C82.2259167,119.373642 85.3046392,119.960424 89.8355894,120.525349 L89.8355894,112.384377 C86.1930608,112.510476 83.3415692,112.927444 81.2776975,113.631919 Z M89.8355894,144 L89.8355894,140.565054 C78.7508214,140.126229 68.8022079,138.418003 60,135.438696 L68.8517545,131.346353 C75.6430543,133.636317 82.6308319,134.998189 89.8355894,135.438696 L89.8355894,126.310786 C80.6950979,125.466762 74.0045998,124.350362 69.7589696,122.971676 C65.5167565,121.591309 63.3930871,119.545137 63.3930871,116.833161 C63.3930871,114.121185 65.8328295,111.900155 70.7276909,110.175116 C75.6225522,108.448396 81.9884347,107.510217 89.8355894,107.352173 L89.8355894,105 L97.5921935,105 L97.5921935,107.397569 C106.484952,107.651449 114.894204,108.826694 122.81995,110.92835 L114.9335,115.256079 C109.594428,113.781557 103.821396,112.873642 97.5921935,112.527289 L97.5921935,121.371055 L97.9578131,121.371055 C107.255487,122.218443 114.084374,123.365106 118.447891,124.80432 C122.81995,126.248577 125,128.341826 125,131.085748 C125,133.83135 122.493626,136.06583 117.480878,137.790869 C112.466421,139.515908 105.844263,140.45745 97.5921935,140.612131 L97.5921935,144 L89.8355894,144 Z" id="Fill-23" fill="#F6C358"></path>
                    <path d="M225,116.160478 C225,136.507359 183.585795,153 132.5,153 C81.4125039,153 40,136.507359 40,116.160478 L40,84 L225,84 L225,116.160478 Z" id="Fill-25" fill="#F6C358"></path>
                    <path d="M132.49915,47 C183.585643,47 225,63.3432836 225,83.5 C225,103.658419 183.585643,120 132.49915,120 C81.4126568,120 40,103.658419 40,83.5 C40,63.3432836 81.4126568,47 132.49915,47" id="Fill-27" fill="#FCD462"></path>
                    <path d="M132.499152,54.8382133 C92.050367,54.8382133 59.1410128,67.9196409 59.1410128,84.0017098 C59.1410128,100.080359 92.050367,113.161787 132.499152,113.161787 C172.949633,113.161787 205.858987,100.080359 205.858987,84.0017098 C205.858987,67.9196409 172.949633,54.8382133 132.499152,54.8382133 M132.499152,116 C88.1119594,116 52,101.646506 52,84.0017098 C52,66.3552041 88.1119594,52 132.499152,52 C176.888041,52 213,66.3552041 213,84.0017098 C213,101.646506 176.888041,116 132.499152,116" id="Fill-29" fill="#F6C358"></path>
                    <path d="M146.811276,94.2617693 C149.071626,93.5421624 150.206072,92.632566 150.206072,91.5346611 C150.206072,90.4384377 149.31765,89.5658303 147.540807,88.9218831 C145.755421,88.2796172 142.439217,87.6760217 137.592193,87.1127781 L137.592193,95.5782462 C141.472204,95.4235644 144.540676,94.9847387 146.811276,94.2617693 Z M121.277697,73.6336006 C119.215534,74.3380755 118.188724,75.2174082 118.188724,76.2682359 C118.188724,77.3190636 118.998554,78.1496379 120.616507,78.7599586 C122.225917,79.373642 125.304639,79.9604242 129.835589,80.5253492 L129.835589,72.3843766 C126.193061,72.5104759 123.341569,72.9274444 121.277697,73.6336006 Z M129.835589,104 L129.835589,100.565054 C118.75253,100.126229 108.802208,98.4180031 100,95.4386963 L108.851755,91.3463528 C115.643054,93.6363166 122.630832,94.9981893 129.835589,95.4386963 L129.835589,86.3107863 C120.695098,85.4667615 114.0046,84.3503621 109.760678,82.9716762 C105.516756,81.5913088 103.394796,79.5451371 103.394796,76.8331609 C103.394796,74.1211847 105.83283,71.9001552 110.727691,70.1751164 C115.622552,68.4483963 121.988435,67.5102173 129.835589,67.3521728 L129.835589,65 L137.592193,65 L137.592193,67.3975685 C146.486661,67.6514485 154.894204,68.8266943 162.81995,70.9283497 L154.9335,75.2560786 C149.594428,73.7832385 143.821396,72.873642 137.592193,72.5272892 L137.592193,81.3710554 L137.957813,81.3710554 C147.255487,82.2201242 154.084374,83.3651061 158.447891,84.806001 C162.81995,86.2485773 165,88.3418262 165,91.0857475 C165,93.8313502 162.493626,96.0658303 157.480878,97.7908691 C152.466421,99.5159079 145.844263,100.45745 137.592193,100.612131 L137.592193,104 L129.835589,104 Z" id="Fill-31" fill="#F6C358"></path>
                    <path d="M192,69.1604781 C192,89.507359 150.585795,106 99.5,106 C48.4125039,106 7,89.507359 7,69.1604781 L7,37 L192,37 L192,69.1604781 Z" id="Fill-33" fill="#F6C358"></path>
                    <path d="M99.4991498,0 C150.585643,0 192,16.3415812 192,36.5 C192,56.6584188 150.585643,73 99.4991498,73 C48.4126568,73 7,56.6584188 7,36.5 C7,16.3415812 48.4126568,0 99.4991498,0" id="Fill-35" fill="#FCD462"></path>
                    <path d="M100.498305,7.83821329 C60.0507887,7.83821329 27.141088,20.9196409 27.141088,37 C27.141088,53.0803591 60.0507887,66.1617867 100.498305,66.1617867 C140.949211,66.1617867 173.858912,53.0803591 173.858912,37 C173.858912,20.9196409 140.949211,7.83821329 100.498305,7.83821329 M100.498305,69 C56.1123397,69 20,54.6447959 20,37 C20,19.3552041 56.1123397,5 100.498305,5 C144.88766,5 181,19.3552041 181,37 C181,54.6447959 144.88766,69 100.498305,69" id="Fill-37" fill="#F6C358"></path>
                    <path d="M185,87 C239.124166,87 283,130.877151 283,184.999151 C283,239.122849 239.124166,283 185,283 C130.875834,283 87,239.122849 87,184.999151 C87,130.877151 130.875834,87 185,87" id="Fill-39" fill="#FCD462"></path>
                    <path d="M185.498303,107.58556 C142.538774,107.58556 107.585485,142.537499 107.585485,185.500848 C107.585485,228.462501 142.538774,263.416137 185.498303,263.416137 C228.461226,263.416137 263.414515,228.462501 263.414515,185.500848 C263.414515,142.537499 228.461226,107.58556 185.498303,107.58556 M185.498303,271 C138.354966,271 100,232.64635 100,185.500848 C100,138.355346 138.354966,100 185.498303,100 C232.643338,100 271,138.355346 271,185.500848 C271,232.64635 232.643338,271 185.498303,271" id="Fill-41" fill="#F6C358"></path>
                    <path d="M187.5,141 L139,141 L139,189.500851 C139,216.243977 160.757343,238 187.5,238 C214.242657,238 236,216.243977 236,189.500851 C236,162.757725 214.242657,141 187.5,141" id="Fill-43" fill="#F6C358"></path>
                    <path d="M115.138385,18.3396787 L80.2271024,13 L69.588407,33.486648 C63.7230952,44.7819891 74.6102634,56.3697494 93.8609945,59.3129747 C113.110035,62.2579304 133.545661,55.4613465 139.410973,44.1660054 C145.277975,32.868934 134.389116,21.2846343 115.138385,18.3396787" id="Fill-45" fill="#F6C358"></path>
                </g>
            </g>
        </g>
    </g>
</svg>