<?xml version="1.0" encoding="UTF-8"?>
<svg width="173px" height="110px" viewBox="0 0 173 110" version="1.1" xmlns="http://www.w3.org/2000/svg" xmlns:xlink="http://www.w3.org/1999/xlink">
    <!-- Generator: Sketch 48.2 (47327) - http://www.bohemiancoding.com/sketch -->
    <title>icon_megaphone</title>
    <desc>Created with Sketch.</desc>
    <defs>
        <polygon id="path-1" points="0.235333114 0.325955326 33.0514603 0.325955326 33.0514603 47.2508591 0.235333114 47.2508591"></polygon>
        <polygon id="path-3" points="0 109.812131 172.661208 109.812131 172.661208 0 0 0"></polygon>
    </defs>
    <g id="OnePager-–-Start" stroke="none" stroke-width="1" fill="none" fill-rule="evenodd" transform="translate(-655.000000, -1998.000000)">
        <g id="Rethinking" transform="translate(171.000000, 1810.000000)">
            <g id="megaphone" transform="translate(484.000000, 188.000000)">
                <g id="Page-1">
                    <path d="M158.962719,35.485433 L153.27193,41.1555361 L158.941094,46.8040928 C162.067235,49.9188694 167.163526,49.9090412 170.301428,46.7829244 C173.43895,43.6560515 173.448814,38.5786632 170.322673,35.4638866 C167.196912,32.349488 162.100621,32.3589381 158.962719,35.485433" id="Fill-1" fill="#A3CE6E"></path>
                    <path d="M137.329183,37.7449691 L133.914709,41.1470309 L137.316284,44.5362405 C139.191589,46.4047285 142.249819,46.3994364 144.132332,44.5233883 C146.015225,42.6473402 146.020536,39.6006048 144.145231,37.7321168 C142.269547,35.8632509 139.211696,35.868921 137.329183,37.7449691" id="Fill-3" fill="#C2DE9E"></path>
                    <path d="M122.336798,39.4393471 L120.629561,41.140378 L122.330349,42.8349828 C123.268191,43.7694158 124.797116,43.7663918 125.738752,42.8285567 C126.679629,41.8907216 126.682664,40.367354 125.744822,39.432921 C124.80736,38.498866 123.278055,38.501512 122.336798,39.4393471" id="Fill-5" fill="#E0EECF"></path>
                    <path d="M157.76974,66.8190275 L150.20706,69.5618454 L152.949641,77.0683058 C154.461495,81.2074811 159.084313,83.344732 163.254144,81.8327045 C167.423975,80.320299 169.586475,75.7226014 168.074622,71.5834261 C166.562769,67.4438729 161.939951,65.307 157.76974,66.8190275" id="Fill-7" fill="#A3CE6E"></path>
                    <path d="M137.204707,59.7572165 L132.66725,61.4030584 L134.312647,65.9070103 C135.219759,68.3905155 137.99345,69.6723368 140.4955,68.7654983 C142.997551,67.8582818 144.294671,65.0992096 143.38756,62.6157045 C142.480448,60.1321993 139.706757,58.85 137.204707,59.7572165" id="Fill-9" fill="#C2DE9E"></path>
                    <path d="M122.898441,54.980079 L120.629713,55.803 L121.452222,58.0551649 C121.905968,59.2969175 123.292623,59.9376392 124.543838,59.4840309 C125.794674,59.0308007 126.443803,57.6510756 125.989678,56.409323 C125.536312,55.1675704 124.149656,54.5264708 122.898441,54.980079" id="Fill-11" fill="#E0EECF"></path>
                    <path d="M152.818829,5.25852921 L150.079283,12.7578076 L157.577467,15.477189 C161.712016,16.9763643 166.304862,14.8319313 167.815198,10.6969141 C169.325913,6.56189691 167.191108,1.97780756 163.056559,0.478254296 C158.922011,-1.02092096 154.329165,1.12351203 152.818829,5.25852921" id="Fill-13" fill="#A3CE6E"></path>
                    <path d="M134.259268,16.3628591 L132.615388,20.8622749 L137.114147,22.4937526 C139.594952,23.3934089 142.350812,22.1070515 143.257165,19.6258144 C144.163138,17.1445773 142.882331,14.3941993 140.401527,13.494921 C137.921101,12.5952646 135.165621,13.882 134.259268,16.3628591" id="Fill-15" fill="#C2DE9E"></path>
                    <path d="M121.451501,24.1741821 L120.629751,26.424079 L122.87913,27.2398179 C124.119723,27.689646 125.497652,27.0462784 125.950639,25.8056598 C126.403626,24.5654192 125.763223,23.1898522 124.52263,22.7404021 C123.282797,22.2905739 121.904867,22.9335636 121.451501,24.1741821" id="Fill-17" fill="#E0EECF"></path>
                    <path d="M106.234368,50.3517251 L99.8439908,51.6252302 L99.8439908,32.854921 L106.234368,34.1288041 C107.995478,34.4795945 109.263006,36.0203505 109.263006,37.809457 L109.263006,46.6706942 C109.263006,48.4601787 107.995478,50.0005567 106.234368,50.3517251" id="Fill-19" fill="#D7DEED"></path>
                    <path d="M106.234368,44.7207457 L99.8439908,45.9942509 L99.8439908,51.6254192 L106.234368,50.3515361 C107.995478,50.0007457 109.263006,48.4603677 109.263006,46.6705052 L109.263006,41.0397148 C109.263006,42.8288213 107.995478,44.3695773 106.234368,44.7207457" id="Fill-21" fill="#C7CFE2"></path>
                    <path d="M5.65152303,55.3791409 L3.76787171,55.3791409 C1.68656031,55.3791409 0.000189692982,53.6985223 0.000189692982,51.6251546 L0.000189692982,32.8552234 C0.000189692982,30.7818557 1.68656031,29.1012371 3.76787171,29.1012371 L5.65152303,29.1012371 L5.65152303,55.3791409 Z" id="Fill-23" fill="#608C2D"></path>
                    <path d="M48.9800559,21.5931134 L48.9800559,62.8873402 C62.1671327,62.8873402 82.8891941,68.5181306 97.9603015,81.6572715 L97.9603015,2.82318213 C82.8891941,15.962323 62.1671327,21.5931134 48.9800559,21.5931134" id="Fill-25" fill="#D7DEED"></path>
                    <path d="M101.72768,83.534 L99.8440287,83.534 C98.803373,83.534 97.959998,82.6936907 97.959998,81.6571959 L97.959998,2.82310653 C97.959998,1.78661168 98.803373,0.946302405 99.8440287,0.946302405 L101.72768,0.946302405 C102.768336,0.946302405 103.611711,1.78661168 103.611711,2.82310653 L103.611711,81.6571959 C103.611711,82.6936907 102.768336,83.534 101.72768,83.534" id="Fill-27" fill="#959CB3"></path>
                    <g id="Group-31" transform="translate(20.486842, 62.561271)">
                        <mask id="mask-2" fill="white">
                            <use xlink:href="#path-1"></use>
                        </mask>
                        <g id="Clip-30"></g>
                        <path d="M31.167809,43.4969863 C30.2698024,43.4969863 29.4966138,42.8653368 29.3201993,41.9879828 L20.9577739,0.325955326 L0.235333114,0.325955326 L8.74609846,42.7243402 C9.27420373,45.3564021 11.5937695,47.2509725 14.2877893,47.2509725 L31.167809,47.2509725 C32.2080853,47.2509725 33.0514603,46.4102852 33.0514603,45.3737904 C33.0514603,44.3372955 32.2084647,43.4969863 31.167809,43.4969863" id="Fill-29" fill="#6B9A33" mask="url(#mask-2)"></path>
                    </g>
                    <path d="M45.212336,62.8872268 L45.212336,65.0513162 C45.212336,65.9687388 44.546893,66.7515911 43.6382636,66.9024158 L13.4964281,71.9076048 C12.3484061,72.0984983 11.3031978,71.2162302 11.3031978,70.0565052 L11.3031978,62.8872268 L45.212336,62.8872268 Z" id="Fill-32" fill="#608C2D"></path>
                    <path d="M48.9800559,62.8872268 L11.3028564,62.8872268 C7.14137171,62.8872268 3.76787171,59.5256117 3.76787171,55.3792543 L3.76787171,29.1013505 C3.76787171,24.9546151 7.14137171,21.593 11.3028564,21.593 L48.9800559,21.593 L48.9800559,62.8872268 Z" id="Fill-34" fill="#85BD3E"></path>
                    <mask id="mask-4" fill="white">
                        <use xlink:href="#path-3"></use>
                    </mask>
                    <g id="Clip-37"></g>
                    <polygon id="Fill-36" fill="#959CB3" mask="url(#mask-4)" points="45.2121842 62.8874914 48.9798662 62.8874914 48.9798662 21.5932646 45.2121842 21.5932646"></polygon>
                    <path d="M3.76775789,49.7481615 L45.2122601,49.7481615 L45.2122601,62.8873024 L11.3031219,62.8873024 C7.14163728,62.8873024 3.76775789,59.5256873 3.76775789,55.3789519 L3.76775789,49.7481615 Z" id="Fill-38" fill="#75A838" mask="url(#mask-4)"></path>
                    <polygon id="Fill-39" fill="#707487" mask="url(#mask-4)" points="45.2121842 62.8874914 48.9798662 62.8874914 48.9798662 49.7483505 45.2121842 49.7483505"></polygon>
                    <path d="M48.9800559,62.8872268 C62.1671327,62.8872268 82.8891941,68.5180172 97.9603015,81.6571581 L97.9603015,59.1328625 C82.8891941,52.8764708 62.1671327,49.7480859 48.9800559,49.7480859 L48.9800559,62.8872268 Z" id="Fill-40" fill="#C7CFE2" mask="url(#mask-4)"></path>
                    <path d="M101.72768,61.0101203 L99.8440287,61.0101203 C98.803373,61.0101203 97.959998,60.169433 97.959998,59.1329381 L97.959998,81.6572337 C97.959998,82.6937285 98.803373,83.5340378 99.8440287,83.5340378 L101.72768,83.5340378 C102.768336,83.5340378 103.611711,82.6937285 103.611711,81.6572337 L103.611711,59.1329381 C103.611711,60.169433 102.768336,61.0101203 101.72768,61.0101203" id="Fill-41" fill="#707487" mask="url(#mask-4)"></path>
                </g>
            </g>
        </g>
    </g>
</svg>