<?xml version="1.0" encoding="UTF-8"?>
<svg width="155px" height="155px" viewBox="0 0 155 155" version="1.1" xmlns="http://www.w3.org/2000/svg" xmlns:xlink="http://www.w3.org/1999/xlink">
    <!-- Generator: Sketch 49 (51002) - http://www.bohemiancoding.com/sketch -->
    <title>icon-decentral</title>
    <desc>Created with Sketch.</desc>
    <defs>
        <polygon id="path-1" points="0 0.395022059 154.999886 0.395022059 154.999886 27.3524853 0 27.3524853"></polygon>
        <polygon id="path-3" points="0.890908088 0 21.1081507 0 21.1081507 77.4997721 0.890908088 77.4997721"></polygon>
        <polygon id="path-5" points="0.742860294 0 10.8509118 0 10.8509118 77.4997721 0.742860294 77.4997721"></polygon>
        <polygon id="path-7" points="0.890566176 0 21.1078088 0 21.1078088 13.4780478 0.890566176 13.4780478"></polygon>
    </defs>
    <g id="OnePage" stroke="none" stroke-width="1" fill="none" fill-rule="evenodd">
        <g id="OnePager-–-Start" transform="translate(-649.000000, -2610.000000)">
            <g id="Rethinking" transform="translate(171.000000, 1810.000000)">
                <g id="icon-decentral" transform="translate(478.000000, 800.000000)">
                    <g id="Page-1">
                        <g id="Group-3" transform="translate(0.000000, 127.647059)">
                            <mask id="mask-2" fill="white">
                                <use xlink:href="#path-1"></use>
                            </mask>
                            <g id="Clip-2"></g>
                            <path d="M154.999886,13.8731838 C154.999886,21.3166029 148.964004,27.3524853 141.519445,27.3524853 L13.4780478,27.3524853 C6.03348897,27.3524853 -0.000113970588,21.3166029 -0.000113970588,13.8731838 C-0.000113970588,6.43090441 6.03348897,0.395022059 13.4780478,0.395022059 L141.521724,0.395022059 C148.964004,0.396161765 154.999886,6.43090441 154.999886,13.8731838" id="Fill-1" fill="#959CB3" mask="url(#mask-2)"></path>
                        </g>
                        <path d="M60.651386,142.362827 L60.3151728,142.362827 C58.9190331,142.362827 57.7884449,143.494555 57.7884449,144.890695 C57.7884449,146.285695 58.9190331,147.418563 60.3151728,147.418563 L60.651386,147.418563 C62.0475257,147.418563 63.1792537,146.285695 63.1792537,144.890695 C63.1792537,143.494555 62.0475257,142.362827 60.651386,142.362827 M71.0979301,142.362827 L70.7605772,142.362827 C69.3655772,142.362827 68.2327096,143.494555 68.2327096,144.890695 C68.2327096,146.285695 69.3655772,147.418563 70.7605772,147.418563 L71.0979301,147.418563 C72.4929301,147.418563 73.6246581,146.285695 73.6246581,144.890695 C73.6246581,143.494555 72.4929301,142.362827 71.0979301,142.362827 M133.09793,142.362827 L82.5542537,142.362827 C81.158114,142.362827 80.026386,143.494555 80.026386,144.890695 C80.026386,146.285695 81.158114,147.418563 82.5542537,147.418563 L133.09793,147.418563 C134.49293,147.418563 135.624658,146.285695 135.624658,144.890695 C135.624658,143.494555 134.49293,142.362827 133.09793,142.362827 M51.3867169,144.890695 C51.3867169,146.285695 50.2538493,147.418563 48.8588493,147.418563 L21.9025257,147.418563 C20.506386,147.418563 19.3746581,146.285695 19.3746581,144.890695 C19.3746581,143.494555 20.506386,142.362827 21.9025257,142.362827 L48.8588493,142.362827 C50.2538493,142.362827 51.3867169,143.494555 51.3867169,144.890695" id="Fill-4" fill="#707487"></path>
                        <path d="M144.890581,47.1728824 L144.890581,121.305051 C144.890581,128.747331 138.856978,134.782074 131.412419,134.782074 L23.587125,134.782074 C16.1437059,134.782074 10.1078235,128.747331 10.1078235,121.305051 L10.1078235,47.1728824 C10.1078235,39.7306029 16.1437059,33.6958603 23.587125,33.6958603 L131.412419,33.6958603 C138.856978,33.6958603 144.890581,39.7306029 144.890581,47.1728824" id="Fill-6" fill="#707487"></path>
                        <path d="M131.412761,128.042993 L23.5874669,128.042993 C19.8651875,128.042993 16.848386,125.027331 16.848386,121.305051 L16.848386,47.1728824 C16.848386,43.4506029 19.8651875,40.4349412 23.5874669,40.4349412 L131.412761,40.4349412 C135.133901,40.4349412 138.151842,43.4506029 138.151842,47.1728824 L138.151842,121.305051 C138.151842,125.026191 135.133901,128.042993 131.412761,128.042993" id="Fill-8" fill="#D7DEED"></path>
                        <path d="M128.04379,74.1295478 C128.04379,71.3395478 125.780335,69.0749522 122.988055,69.0749522 L85.9236801,69.0749522 C83.1325404,69.0749522 80.8679449,71.3395478 80.8679449,74.1295478 C80.8679449,76.9218272 83.1325404,79.1852831 85.9236801,79.1852831 L122.988055,79.1852831 C125.780335,79.1852831 128.04379,76.9218272 128.04379,74.1295478 M74.1300037,74.1295478 C74.1300037,71.3395478 71.8665478,69.0749522 69.0754081,69.0749522 L32.0098934,69.0749522 C29.2198934,69.0749522 26.9564375,71.3395478 26.9564375,74.1295478 C26.9564375,76.9218272 29.2198934,79.1852831 32.0098934,79.1852831 L69.0754081,79.1852831 C71.8665478,79.1852831 74.1300037,76.9218272 74.1300037,74.1295478 M122.988055,61.4936287 L32.0098934,61.4936287 C29.2198934,61.4936287 26.9564375,59.2313125 26.9564375,56.4401728 C26.9564375,53.6478934 29.2198934,51.3844375 32.0098934,51.3844375 L122.988055,51.3844375 C125.780335,51.3844375 128.04379,53.6478934 128.04379,56.4401728 C128.04379,59.2313125 125.780335,61.4936287 122.988055,61.4936287" id="Fill-10" fill="#707487"></path>
                        <path d="M122.988511,116.248632 L32.0103493,116.248632 C29.2192096,116.248632 26.9557537,113.986316 26.9557537,111.195176 L26.9557537,90.9779338 C26.9557537,88.1856544 29.2192096,85.9233382 32.0103493,85.9233382 L122.988511,85.9233382 C125.78079,85.9233382 128.044246,88.1856544 128.044246,90.9779338 L128.044246,111.195176 C128.044246,113.986316 125.78079,116.248632 122.988511,116.248632" id="Fill-12" fill="#C7CFE2"></path>
                        <path d="M113.891493,88.5061397 L107.152412,97.4927206 C105.80414,99.2900368 103.108735,99.2900368 101.759324,97.4927206 L95.0213824,88.5061397 C94.5837353,87.92375 94.3466765,87.2148529 94.3466765,86.4865809 L94.3466765,6.73908088 C94.3466765,3.01680147 97.3646176,0 101.085757,0 L107.824838,0 C111.547118,0 114.563919,3.01680147 114.563919,6.73908088 L114.563919,86.4865809 C114.563919,87.2148529 114.32686,87.92375 113.891493,88.5061397" id="Fill-14" fill="#D6A154"></path>
                        <path d="M112.037761,90.9780478 L107.151842,97.4926066 C105.80471,99.2887831 103.108165,99.2887831 101.759893,97.4926066 L96.8739743,90.9780478 L112.037761,90.9780478 Z" id="Fill-16" fill="#B26932"></path>
                        <g id="Group-20" transform="translate(93.455882, 0.000000)">
                            <mask id="mask-4" fill="white">
                                <use xlink:href="#path-3"></use>
                            </mask>
                            <g id="Clip-19"></g>
                            <path d="M0.890908088,77.4997721 L0.890908088,6.73885294 C0.890908088,3.01657353 3.90770956,-0.000227941176 7.62998897,-0.000227941176 L14.3690699,-0.000227941176 C18.0913493,-0.000227941176 21.1081507,3.01657353 21.1081507,6.73885294 L21.1081507,77.4997721 L0.890908088,77.4997721 Z" id="Fill-18" fill="#85BD3E" mask="url(#mask-4)"></path>
                        </g>
                        <g id="Group-23" transform="translate(103.713235, 0.000000)">
                            <mask id="mask-6" fill="white">
                                <use xlink:href="#path-5"></use>
                            </mask>
                            <g id="Clip-22"></g>
                            <path d="M0.742860294,77.4997721 L0.742860294,-0.000227941176 L4.11183088,-0.000227941176 C7.83411029,-0.000227941176 10.8509118,3.01657353 10.8509118,6.73885294 L10.8509118,77.4997721 L0.742860294,77.4997721 Z" id="Fill-21" fill="#75A838" mask="url(#mask-6)"></path>
                        </g>
                        <g id="Group-26" transform="translate(93.455882, 0.000000)">
                            <mask id="mask-8" fill="white">
                                <use xlink:href="#path-7"></use>
                            </mask>
                            <g id="Clip-25"></g>
                            <path d="M21.1078088,6.73896691 L21.1078088,13.4780478 L0.890566176,13.4780478 L0.890566176,6.73896691 C0.890566176,3.0166875 3.90850735,-0.000113970588 7.62964706,-0.000113970588 L14.3687279,-0.000113970588 C18.0910074,-0.000113970588 21.1078088,3.0166875 21.1078088,6.73896691" id="Fill-24" fill="#FCD462" mask="url(#mask-8)"></path>
                        </g>
                        <polygon id="Fill-27" fill="#D7DEED" points="24.8631397 101.857566 24.8631397 111.346757 29.9245735 118.306941 40.6788382 116.408191 40.6788382 102.490103"></polygon>
                        <path d="M42.6631801,112.860629 C42.8956801,112.029783 43.0199081,111.155629 43.0199081,110.250702 C43.0199081,104.998937 38.8280699,100.72618 33.6070772,100.595114 C33.5250184,100.592835 33.4429596,100.591695 33.3609007,100.591695 L23.7018934,100.591695 L23.7018934,110.250702 C23.7018934,115.586805 28.0259375,119.910849 33.3609007,119.910849 C37.7920772,119.910849 41.524614,116.927099 42.6631801,112.860629 Z M25.1459007,110.250702 L25.1459007,102.035702 L25.939136,102.035702 L33.3609007,102.035702 C34.181489,102.035702 34.9735846,102.156511 35.7223713,102.382173 C39.1050184,103.39879 41.5759007,106.54096 41.5759007,110.250702 C41.5759007,110.369232 41.5736213,110.488901 41.5690625,110.605151 C41.381011,114.972504 37.7715625,118.466842 33.3609007,118.466842 C28.8305699,118.466842 25.1459007,114.782173 25.1459007,110.250702 Z" id="Stroke-29" stroke="#D7DEED" stroke-width="3.886"></path>
                        <path d="M42.6631801,112.860629 C42.8956801,112.029783 43.0199081,111.155629 43.0199081,110.250702 C43.0199081,104.998937 38.8280699,100.72618 33.6070772,100.595114 C33.5250184,100.592835 33.4429596,100.591695 33.3609007,100.591695 L23.7018934,100.591695 L23.7018934,110.250702 C23.7018934,115.586805 28.0259375,119.910849 33.3609007,119.910849 C37.7920772,119.910849 41.524614,116.927099 42.6631801,112.860629 M25.1459007,110.250702 L25.1459007,102.035702 L25.939136,102.035702 L33.3609007,102.035702 C34.181489,102.035702 34.9735846,102.156511 35.7223713,102.382173 C39.1050184,103.39879 41.5759007,106.54096 41.5759007,110.250702 C41.5759007,110.369232 41.5736213,110.488901 41.5690625,110.605151 C41.381011,114.972504 37.7715625,118.466842 33.3609007,118.466842 C28.8305699,118.466842 25.1459007,114.782173 25.1459007,110.250702" id="Fill-31" fill="#85BD3E"></path>
                        <path d="M38.6830993,112.575702 C38.6830993,112.576842 38.6853787,112.573423 38.6865184,112.566585 C38.6853787,112.570004 38.684239,112.573423 38.6830993,112.575702 C38.6910772,112.534673 38.6979154,112.498202 38.7058934,112.457173 C38.6990551,112.515298 38.6910772,112.551768 38.6865184,112.566585 C38.9965184,111.856548 39.1697537,111.07471 39.1697537,110.250702 C39.1697537,107.088018 36.6282096,104.508864 33.4803419,104.44504 C33.4404522,104.443901 33.4005625,104.441621 33.3618125,104.441621 L27.5515919,104.441621 L27.5515919,110.250702 C27.5515919,113.454415 30.1580993,116.060923 33.3618125,116.060923 C35.7380993,116.060923 37.785011,114.624893 38.6830993,112.575702" id="Fill-33" fill="#85BD3E"></path>
                    </g>
                </g>
            </g>
        </g>
    </g>
</svg>