<?xml version="1.0" encoding="UTF-8"?>
<svg width="170px" height="114px" viewBox="0 0 170 114" version="1.1" xmlns="http://www.w3.org/2000/svg" xmlns:xlink="http://www.w3.org/1999/xlink">
    <!-- Generator: Sketch 48.2 (47327) - http://www.bohemiancoding.com/sketch -->
    <title>icon_ID</title>
    <desc>Created with Sketch.</desc>
    <defs></defs>
    <g id="OnePager-–-Start" stroke="none" stroke-width="1" fill="none" fill-rule="evenodd" transform="translate(-641.000000, -2317.000000)">
        <g id="Rethinking" transform="translate(171.000000, 1810.000000)">
            <g id="icon_ID" transform="translate(470.000000, 507.000000)">
                <g id="Page-1">
                    <path d="M163.70392,114 L6.29607955,114 C2.81822921,114 0,111.164359 0,107.6669 L0,6.33309974 C0,2.83564099 2.81822921,0 6.29607955,0 L163.70392,0 C167.181771,0 170,2.83564099 170,6.33309974 L170,107.6669 C170,111.164359 167.180935,114 163.70392,114" id="Fill-1" fill="#D7DEED"></path>
                    <path d="M68.8497072,105 L12.1494563,105 C10.4103541,105 9,103.576007 9,101.821127 L9,19.1780288 C9,17.4231491 10.4103541,16 12.1494563,16 L68.8497072,16 C70.5896459,16 72,17.4231491 72,19.1780288 L72,101.821127 C72,103.576007 70.5896459,105 68.8497072,105" id="Fill-3" fill="#85BD3E"></path>
                    <path d="M41.4997777,24 C11.7353819,24 15.0360286,59.9635037 15.1718576,86.0259941 C15.1769512,87.0095161 15.6956485,87.8977225 16.5445803,88.4055101 C19.8426801,90.3809892 28.9007818,95 41.4997777,95 C54.0987737,95 63.1568754,90.3809892 66.4549752,88.4055101 C67.303907,87.8977225 67.8226043,87.0095161 67.8285468,86.0259941 C67.9635269,59.9643472 71.2641735,24 41.4997777,24" id="Fill-5" fill="#694B4B"></path>
                    <path d="M39.5655278,24 C11.9001258,25.5435333 15.0367484,60.5077719 15.169951,86.0166022 C15.1741931,87.0011536 15.6934284,87.8902896 16.5410038,88.3994529 C19.8379785,90.3761551 28.8898116,95 41.4821171,95 L49,42.6287923" id="Fill-7" fill="#5A4146"></path>
                    <path d="M40.8559588,24 C24.1591298,24 23,44.3190928 23,44.3190928 C32.6239598,42.6835446 38.5368617,46.7703064 48.277237,42.6835446 L40.8559588,95 C53.2864532,95 62.2219703,90.3809892 65.4757414,88.4055101 C66.3132629,87.8977225 66.8249886,87.0095161 66.8308512,86.0259941 C66.9640172,59.9643472 70.2203008,24 40.8559588,24" id="Fill-9" fill="#694B4B"></path>
                    <path d="M67.8330494,84.4671192 C67.947953,62.2697846 70.351704,32.8472385 52.3738941,25 C52.0602155,26.6236242 51.4924069,31.1567296 52.9685415,34.0996531 C56.6840394,41.5071252 60.3995374,41.5071252 64.1150353,47.0635653 C67.8313719,67.4349497 57.0161697,89.0562405 53.4231239,92 C59.7881157,90.4909157 64.3498749,88.1039707 66.4768507,86.8256383 C67.3147248,86.3223315 67.8280171,85.4419626 67.8330494,84.4671192" id="Fill-11" fill="#785550"></path>
                    <path d="M68.5786783,90.8478867 L52.0450785,83.9312476 C50.6640022,83.3533911 49.7639186,81.9986202 49.7639186,80.4960254 L49.7639186,76 L31.2352449,76 L31.2352449,80.4960254 C31.2352449,81.9986202 30.3351613,83.3525512 28.9549215,83.9312476 L12.4204852,90.8478867 C10.349289,91.7146714 9,93.7464079 9,96.0007199 L9,100.837748 C9,102.583916 10.4103541,104 12.1494563,104 L68.8497072,104 C70.5896459,104 72,102.583916 72,100.837748 L72,96.0007199 C72,93.7464079 70.650711,91.7146714 68.5786783,90.8478867" id="Fill-13" fill="#E6AF78"></path>
                    <path d="M68.5786783,91.7420202 L52.5929919,85 L40.4995817,90.2823639 L28.4070081,85 L12.4204852,91.7420202 C10.349289,92.6157819 9,94.6638727 9,96.9363305 L9,101.812294 C9,103.572517 10.4103541,105 12.1494563,105 L68.8497072,105 C70.5896459,105 72,103.572517 72,101.812294 L72,96.9363305 C72,94.6638727 70.650711,92.6157819 68.5786783,91.7420202" id="Fill-15" fill="#707487"></path>
                    <path d="M50,76 L31.7812824,76 L31.7812824,80.4475923 C31.7812824,81.9340004 30.8962558,83.2733463 29.5391052,83.8449778 L27,84.9142943 C46.4302829,89.9185626 50,76 50,76" id="Fill-17" fill="#D29B6E"></path>
                    <path d="M50.71761,41 C41.361829,50.5044479 23,42.9008896 23,58.1088645 L24.1615529,69.3108111 C24.3862606,71.815866 25.8164491,74.0480167 27.980739,75.2700785 L38.634925,81.2816954 C40.3312147,82.2394349 42.3924432,82.2394349 44.0878882,81.2816954 L54.7420742,75.2700785 C56.9072089,74.0480167 58.3373973,71.815866 58.5604155,69.3108111 L59.9019035,56.0063004 C59.9973621,55.0605756 60.0176365,54.1088435 59.9863801,53.1605442 C59.2869141,48.321214 52.5887662,44.8026374 50.71761,41" id="Fill-19" fill="#F0C087"></path>
                    <path d="M23,57.7015365 L24.1324196,68.6376248 C24.3514913,71.0830394 25.744985,73.2612093 27.855815,74.4541762 L38.242779,80.3235063 C39.3900229,80.9719307 40.7052768,81.14032 41.9579387,80.8881549 C41.9579387,80.8881549 36.7208071,79.273796 33.6035649,70.6918066 C32.6490382,68.0620853 31.3239014,54.1452553 32.4637332,52.4437695 C34.7170422,49.081848 47.2856639,48.7325031 51,42.4953974 C50.8163421,42.2633385 50.6466851,42.0312797 50.492676,41.7992208 C50.4803224,41.7807901 50.4646744,41.7623595 50.4523207,41.743091 C50.2908995,41.4959525 50.1451262,41.248814 50.0224131,41 C40.9004647,50.2790037 23,42.8556332 23,57.7015365" id="Fill-21" fill="#E6AF78"></path>
                    <path d="M137.888613,29 L88.1113865,29 C86.3929362,29 85,27.4328774 85,25.4995353 C85,23.5671226 86.3929362,22 88.1113865,22 L137.888613,22 C139.607064,22 141,23.5671226 141,25.4995353 C141,27.4328774 139.607064,29 137.888613,29" id="Fill-23" fill="#85BD3E"></path>
                    <path d="M153.869276,42 L88.1298926,42 C86.4015933,42 85,40.4321561 85,38.5 C85,36.5669145 86.4015933,35 88.1298926,35 L153.869276,35 C155.598407,35 157,36.5669145 157,38.5 C157,40.4321561 155.598407,42 153.869276,42" id="Fill-25" fill="#85BD3E"></path>
                    <path d="M93.9998008,70 L88.0001992,70 C86.3431587,70 85,68.4319479 85,66.4995353 C85,64.5661931 86.3431587,63 88.0001992,63 L93.9998008,63 C95.6568413,63 97,64.5661931 97,66.4995353 C97,68.4319479 95.6568413,70 93.9998008,70" id="Fill-27" fill="#707487"></path>
                    <path d="M144.856904,70 L107.143096,70 C105.407132,70 104,68.4319479 104,66.4995353 C104,64.5661931 105.407132,63 107.143096,63 L144.856904,63 C146.592868,63 148,64.5661931 148,66.4995353 C148,68.4319479 146.592868,70 144.856904,70" id="Fill-29" fill="#959CB3"></path>
                    <path d="M93.9998008,82 L88.0001992,82 C86.3431587,82 85,80.4319479 85,78.4995353 C85,76.5661931 86.3431587,75 88.0001992,75 L93.9998008,75 C95.6568413,75 97,76.5661931 97,78.4995353 C97,80.4319479 95.6568413,82 93.9998008,82" id="Fill-31" fill="#707487"></path>
                    <path d="M154.823232,82 L107.175925,82 C105.422207,82 104,80.4319479 104,78.4995353 C104,76.5661931 105.422207,75 107.175925,75 L154.823232,75 C156.577793,75 158,76.5661931 158,78.4995353 C158,80.4319479 156.577793,82 154.823232,82" id="Fill-33" fill="#959CB3"></path>
                    <path d="M93.9998008,96 L88.0001992,96 C86.3431587,96 85,94.4319479 85,92.4995353 C85,90.5661931 86.3431587,89 88.0001992,89 L93.9998008,89 C95.6568413,89 97,90.5661931 97,92.4995353 C97,94.4319479 95.6568413,96 93.9998008,96" id="Fill-35" fill="#707487"></path>
                    <path d="M132.799745,96 L107.200255,96 C105.432722,96 104,94.4319479 104,92.4995353 C104,90.5661931 105.432722,89 107.200255,89 L132.799745,89 C134.566429,89 136,90.5661931 136,92.4995353 C136,94.4319479 134.566429,96 132.799745,96" id="Fill-37" fill="#959CB3"></path>
                </g>
            </g>
        </g>
    </g>
</svg>