<?xml version="1.0" encoding="UTF-8"?>
<svg width="303px" height="243px" viewBox="0 0 303 243" version="1.1" xmlns="http://www.w3.org/2000/svg" xmlns:xlink="http://www.w3.org/1999/xlink">
    <!-- Generator: Sketch 48.2 (47327) - http://www.bohemiancoding.com/sketch -->
    <title>icon_roadmap</title>
    <desc>Created with Sketch.</desc>
    <defs>
        <polygon id="path-1" points="0.760070089 0.998002762 37.6367933 0.998002762 37.6367933 37.9005525 0.760070089 37.9005525"></polygon>
        <polygon id="path-3" points="0.570289286 0.978646409 16.2153696 0.978646409 16.2153696 92.3049006 0.570289286 92.3049006"></polygon>
        <polygon id="path-5" points="0.570289286 0.978646409 66.2807089 0.978646409 66.2807089 50.0336022 0.570289286 50.0336022"></polygon>
        <polygon id="path-7" points="0 0.877939227 87.0928862 0.877939227 87.0928862 125.718298 0 125.718298"></polygon>
    </defs>
    <g id="OnePager-–-Start" stroke="none" stroke-width="1" fill="none" fill-rule="evenodd" transform="translate(-860.000000, -5835.000000)">
        <g id="Roadmap" transform="translate(171.000000, 5834.000000)">
            <g id="icon_roadmap" transform="translate(689.000000, 0.000000)">
                <g id="Page-1">
                    <path d="M45.8932728,218.450257 L202.348134,218.450257 C216.438987,218.450257 227.901585,206.978572 227.901585,192.878213 C227.901585,178.777854 216.438987,167.307522 202.348134,167.307522 L152.281442,167.307522 C129.564558,167.307522 111.082911,148.812052 111.082911,126.079843 C111.082911,103.346279 129.564558,84.852163 152.281442,84.852163 L228.423719,84.852163 C232.744175,84.852163 236.246259,88.3566105 236.246259,92.6799807 C236.246259,97.0033508 232.744175,100.507798 228.423719,100.507798 L152.281442,100.507798 C138.19059,100.507798 126.727992,111.979483 126.727992,126.079843 C126.727992,140.180202 138.19059,151.650533 152.281442,151.650533 L202.348134,151.650533 C225.065018,151.650533 243.548018,170.144649 243.548018,192.878213 C243.548018,215.610423 225.065018,234.105892 202.348134,234.105892 L45.8932728,234.105892 C41.5728174,234.105892 38.0707326,230.601445 38.0707326,226.278075 C38.0707326,221.954704 41.5728174,218.450257 45.8932728,218.450257" id="Fill-1" fill="#707487"></path>
                    <g id="Group-5" transform="translate(24.348214, 206.120801)">
                        <mask id="mask-2" fill="white">
                            <use xlink:href="#path-1"></use>
                        </mask>
                        <g id="Clip-4"></g>
                        <path d="M19.1984317,37.9009586 C29.3651638,37.9009586 37.6367933,29.6237486 37.6367933,19.4488039 C37.6367933,9.2765663 29.3651638,0.998002762 19.1984317,0.998002762 C9.03034688,0.998002762 0.760070089,9.2765663 0.760070089,19.4488039 C0.760070089,29.6237486 9.03034688,37.9009586 19.1984317,37.9009586" id="Fill-3" fill="#F6C358" mask="url(#mask-2)"></path>
                    </g>
                    <path d="M245.111579,117.207729 C258.627544,117.207729 269.623468,106.204387 269.623468,92.6793039 C269.623468,79.1555746 258.627544,68.152232 245.111579,68.152232 C231.595615,68.152232 220.601044,79.1555746 220.601044,92.6793039 C220.601044,106.204387 231.595615,117.207729 245.111579,117.207729" id="Fill-6" fill="#D7DEED"></path>
                    <g id="Group-10" transform="translate(236.718750, 0.374945)">
                        <mask id="mask-4" fill="white">
                            <use xlink:href="#path-3"></use>
                        </mask>
                        <g id="Clip-9"></g>
                        <path d="M8.39282946,92.3049006 C12.7132848,92.3049006 16.2153696,88.4228011 16.2153696,83.6351492 L16.2153696,9.64920994 C16.2153696,4.86020442 12.7132848,0.978104972 8.39282946,0.978104972 C4.07237411,0.978104972 0.570289286,4.86020442 0.570289286,9.64920994 L0.570289286,83.6351492 C0.570289286,88.4228011 4.07237411,92.3049006 8.39282946,92.3049006" id="Fill-8" fill="#707487" mask="url(#mask-4)"></path>
                    </g>
                    <g id="Group-13" transform="translate(236.718750, 0.374945)">
                        <mask id="mask-6" fill="white">
                            <use xlink:href="#path-5"></use>
                        </mask>
                        <g id="Clip-12"></g>
                        <path d="M8.39282946,50.0336022 L58.4581687,50.0336022 C62.7786241,50.0336022 66.2807089,46.5291547 66.2807089,42.2057845 L66.2807089,8.80592265 C66.2807089,4.48390608 62.7786241,0.978104972 58.4581687,0.978104972 L8.39282946,0.978104972 C4.07372679,0.978104972 0.570289286,4.48390608 0.570289286,8.80592265 L0.570289286,42.2057845 C0.570289286,46.5291547 4.07372679,50.0336022 8.39282946,50.0336022" id="Fill-11" fill="#85BD3E" mask="url(#mask-6)"></path>
                    </g>
                    <g id="Group-16" transform="translate(0.000000, 68.054503)">
                        <mask id="mask-8" fill="white">
                            <use xlink:href="#path-7"></use>
                        </mask>
                        <g id="Clip-15"></g>
                        <path d="M25.1077433,44.4540994 C25.1077433,34.2778011 33.3780201,26.0032983 43.5461049,26.0032983 C53.7155424,26.0032983 61.9844665,34.2778011 61.9844665,44.4540994 C61.9844665,54.6303978 53.7155424,62.9049006 43.5461049,62.9049006 C33.3780201,62.9049006 25.1077433,54.6303978 25.1077433,44.4540994 M-0.000676339286,44.4540994 C-0.000676339286,57.4282707 5.64946205,69.5158398 15.5470112,77.8268895 L38.3044754,122.502166 C39.3095156,124.477055 41.3344754,125.718298 43.5461049,125.718298 C45.7590871,125.718298 47.7840469,124.477055 48.7877344,122.502166 L71.5465513,77.8268895 C81.4427478,69.5158398 87.0928862,57.4282707 87.0928862,44.4540994 C87.0928862,20.4251492 67.5602076,0.877939227 43.5461049,0.877939227 C19.5333549,0.877939227 -0.000676339286,20.4251492 -0.000676339286,44.4540994" id="Fill-14" fill="#FCD462" mask="url(#mask-8)"></path>
                    </g>
                    <path d="M271.711327,16.6771906 L261.989626,16.6771906 L261.989626,26.4054503 C261.989626,31.769732 266.350662,36.1337099 271.711327,36.1337099 C277.071992,36.1337099 281.433028,31.769732 281.433028,26.4054503 C281.433028,21.0411685 277.071992,16.6771906 271.711327,16.6771906" id="Fill-17" fill="#FFFFFF"></path>
                    <path d="M271.711327,10.2297652 L255.546818,10.2297652 L255.546818,26.4051796 C255.546818,35.3388812 262.783649,42.5805939 271.711327,42.5805939 C280.639006,42.5805939 287.875836,35.3388812 287.875836,26.4051796 C287.875836,17.4714779 280.639006,10.2297652 271.711327,10.2297652 M271.711327,12.647279 C279.291738,12.647279 285.459952,18.8196547 285.459952,26.4051796 C285.459952,33.992058 279.291738,40.1630801 271.711327,40.1630801 C264.130917,40.1630801 257.962702,33.992058 257.962702,26.4051796 L257.962702,12.647279 L271.711327,12.647279" id="Fill-19" fill="#FFFFFF"></path>
                </g>
            </g>
        </g>
    </g>
</svg>